<?xml version="1.0"?>
<svg width="500" height="500" viewBox="0 0 500 500" fill="none" xmlns="http://www.w3.org/2000/svg">
<path d="M126.275 158.205C136.159 154.319 141.022 143.157 137.137 133.273C133.251 123.388 122.089 118.526 112.204 122.411C102.32 126.297 97.4574 137.459 101.343 147.343C105.228 157.227 116.391 162.09 126.275 158.205Z" fill="#EBEBEB"></path>
<path d="M137.64 145.92C135.851 144.36 133.826 143.094 131.64 142.17C127.83 140.49 117.46 138.66 112.64 136.23C105.89 132.83 105.05 129.16 105.09 127.23C106.771 125.415 108.784 123.938 111.02 122.88C111.5 124.88 113.31 130.88 124.52 134.88C130.31 136.88 135.85 135.56 137.73 135.1C138.742 138.64 138.711 142.397 137.64 145.92V145.92Z" fill="#DBDBDB"></path>
<path d="M129.79 156.41C126.102 158.828 121.697 159.907 117.309 159.469C112.921 159.03 108.816 157.1 105.68 154C106.773 153.413 107.931 152.956 109.13 152.64C114.3 151.38 119.99 153.85 122.07 155.02C124.397 156.385 127.133 156.878 129.79 156.41V156.41Z" fill="#DBDBDB"></path>
<path d="M136.5 148.8L136.26 149.27L136.04 149.69C135.86 150.01 135.68 150.31 135.49 150.61C135.3 150.91 135.14 151.15 134.96 151.41L134.75 151.7L134.51 152.02L134.27 152.34L133.96 152.7L133.66 153.06L133.39 153.36C133.19 153.58 132.98 153.79 132.77 154C131.57 154.37 129.97 154.21 127.62 153.28C124.13 151.91 120.36 148.61 113.62 146.19C109.468 144.733 104.995 144.446 100.69 145.36C99.6472 141.525 99.8219 137.461 101.19 133.73C102.42 133.73 106.37 134.25 114.8 141.21C117.422 143.434 120.267 145.381 123.29 147.02C130.49 150.79 134.65 149.67 136.39 148.8H136.52H136.5Z" fill="#DBDBDB"></path>
<path d="M118.22 156C118.56 155.22 119.76 155 120.9 155.48C122.04 155.96 122.69 157.02 122.34 157.8C121.99 158.58 120.8 158.8 119.66 158.32C118.52 157.84 117.88 156.83 118.22 156Z" fill="#C7C7C7"></path>
<path d="M123.66 154.67C123.86 154.23 124.57 154.12 125.25 154.41C125.93 154.7 126.33 155.31 126.14 155.75C125.95 156.19 125.24 156.31 124.55 156.01C123.86 155.71 123.47 155.11 123.66 154.67Z" fill="#C7C7C7"></path>
<path d="M108.75 131.05C109.04 130.38 110.08 130.19 111.08 130.63C112.08 131.07 112.65 131.96 112.36 132.63C112.07 133.3 111.02 133.49 110.02 133.05C109.02 132.61 108.45 131.72 108.75 131.05Z" fill="#C7C7C7"></path>
<path d="M112.29 130.39C112.406 130.206 112.588 130.075 112.799 130.023C113.009 129.97 113.232 130.002 113.42 130.11C113.623 130.175 113.794 130.314 113.9 130.499C114.006 130.684 114.038 130.902 113.99 131.11C113.848 131.25 113.667 131.343 113.471 131.38C113.275 131.416 113.073 131.393 112.891 131.313C112.708 131.234 112.553 131.101 112.446 130.933C112.339 130.765 112.285 130.569 112.29 130.37V130.39Z" fill="#C7C7C7"></path>
<path d="M112.86 132.17C112.937 132.059 113.053 131.982 113.185 131.954C113.317 131.927 113.455 131.95 113.57 132.02C113.87 132.15 114.04 132.43 113.94 132.64C113.84 132.85 113.53 132.92 113.23 132.79C112.93 132.66 112.77 132.39 112.86 132.17Z" fill="#C7C7C7"></path>
<path d="M124.86 132.22C124.901 131.879 125.048 131.559 125.28 131.306C125.512 131.053 125.818 130.879 126.155 130.809C126.491 130.74 126.841 130.777 127.155 130.917C127.468 131.056 127.731 131.291 127.904 131.587C128.077 131.884 128.153 132.227 128.121 132.569C128.089 132.911 127.95 133.235 127.724 133.493C127.498 133.752 127.197 133.934 126.862 134.012C126.528 134.09 126.177 134.062 125.86 133.93C125.503 133.831 125.199 133.598 125.013 133.278C124.826 132.959 124.771 132.579 124.86 132.22V132.22Z" fill="#C7C7C7"></path>
<path d="M124.4 134.84C124.445 134.693 124.535 134.563 124.656 134.468C124.777 134.372 124.924 134.316 125.077 134.306C125.231 134.296 125.384 134.333 125.516 134.412C125.648 134.491 125.754 134.609 125.817 134.749C125.881 134.889 125.901 135.045 125.874 135.197C125.848 135.348 125.775 135.488 125.667 135.598C125.559 135.708 125.42 135.782 125.269 135.811C125.117 135.84 124.961 135.822 124.82 135.76C124.645 135.691 124.503 135.556 124.425 135.385C124.347 135.213 124.338 135.018 124.4 134.84V134.84Z" fill="#C7C7C7"></path>
<path d="M415.48 356.29C422.621 356.29 428.41 350.501 428.41 343.36C428.41 336.219 422.621 330.43 415.48 330.43C408.339 330.43 402.55 336.219 402.55 343.36C402.55 350.501 408.339 356.29 415.48 356.29Z" fill="#EBEBEB"></path>
<path d="M420.19 335.69C420.22 336.31 420.052 336.922 419.71 337.44C419.364 337.976 418.876 338.405 418.3 338.68C417.712 338.979 417.032 339.04 416.4 338.85C415.805 338.655 415.296 338.259 414.96 337.73C415.416 338.077 415.947 338.313 416.51 338.42C416.771 338.465 417.039 338.465 417.3 338.42C417.564 338.378 417.82 338.297 418.06 338.18L418.42 337.98C418.53 337.9 418.65 337.83 418.75 337.75C418.974 337.586 419.175 337.395 419.35 337.18C419.722 336.741 420.007 336.235 420.19 335.69V335.69Z" fill="#C7C7C7"></path>
<path d="M415.54 336.43C415.48 335.998 415.576 335.558 415.81 335.19C416.046 334.802 416.395 334.495 416.81 334.31C417.017 334.205 417.243 334.142 417.475 334.125C417.707 334.108 417.94 334.137 418.16 334.21C418.59 334.343 418.95 334.642 419.16 335.04C418.832 334.833 418.464 334.697 418.08 334.64C417.736 334.596 417.387 334.659 417.08 334.82C416.383 335.144 415.833 335.719 415.54 336.43Z" fill="#C7C7C7"></path>
<path d="M415.48 349.44C415.625 349.837 415.625 350.273 415.48 350.67C415.345 351.089 415.083 351.456 414.73 351.72C414.381 351.989 413.943 352.113 413.505 352.066C413.067 352.02 412.664 351.806 412.38 351.47C412.736 351.581 413.108 351.632 413.48 351.62C413.812 351.6 414.13 351.477 414.39 351.27C414.668 351.061 414.902 350.799 415.08 350.5C415.271 350.171 415.407 349.813 415.48 349.44V349.44Z" fill="#C7C7C7"></path>
<path d="M412.8 350.91C412.728 350.778 412.684 350.633 412.668 350.484C412.653 350.335 412.667 350.184 412.71 350.04C412.799 349.738 412.981 349.472 413.23 349.28C413.361 349.18 413.511 349.108 413.671 349.068C413.831 349.029 413.998 349.022 414.16 349.05C414.308 349.076 414.449 349.132 414.575 349.214C414.7 349.297 414.808 349.404 414.89 349.53C414.641 349.492 414.389 349.492 414.14 349.53C413.936 349.56 413.742 349.642 413.58 349.77C413.203 350.055 412.93 350.456 412.8 350.91Z" fill="#C7C7C7"></path>
<path d="M410.82 337.8C410.935 337.906 411.027 338.034 411.09 338.177C411.154 338.32 411.188 338.474 411.19 338.63C411.193 338.974 411.06 339.304 410.82 339.55C410.696 339.672 410.546 339.764 410.382 339.819C410.217 339.874 410.042 339.892 409.87 339.87C409.563 339.836 409.278 339.699 409.06 339.48C409.328 339.491 409.596 339.474 409.86 339.43C410.071 339.395 410.266 339.298 410.42 339.15C410.573 338.993 410.687 338.8 410.75 338.59C410.816 338.332 410.84 338.065 410.82 337.8Z" fill="#C7C7C7"></path>
<path d="M409.22 339.06C409.125 338.997 409.045 338.913 408.988 338.814C408.931 338.715 408.897 338.604 408.89 338.49C408.884 338.365 408.904 338.24 408.949 338.123C408.994 338.006 409.062 337.899 409.15 337.81C409.242 337.718 409.354 337.65 409.477 337.61C409.601 337.57 409.732 337.559 409.86 337.58C409.97 337.596 410.076 337.634 410.17 337.693C410.265 337.751 410.347 337.829 410.41 337.92C410.228 337.941 410.048 337.975 409.87 338.02C409.749 338.056 409.639 338.121 409.55 338.21C409.459 338.303 409.384 338.411 409.33 338.53C409.271 338.701 409.234 338.879 409.22 339.06V339.06Z" fill="#C7C7C7"></path>
<path d="M419.81 351.44C419.735 351.578 419.632 351.699 419.508 351.795C419.385 351.891 419.242 351.961 419.09 352C418.923 352.047 418.747 352.059 418.575 352.035C418.403 352.01 418.238 351.951 418.09 351.86C417.943 351.771 417.819 351.65 417.725 351.507C417.632 351.363 417.572 351.2 417.55 351.03C417.506 350.721 417.57 350.407 417.73 350.14C417.785 350.405 417.868 350.663 417.98 350.91C418.06 351.105 418.2 351.269 418.38 351.38C418.572 351.492 418.788 351.554 419.01 351.56C419.281 351.562 419.551 351.521 419.81 351.44V351.44Z" fill="#C7C7C7"></path>
<path d="M418.2 350.19C418.24 350.085 418.302 349.989 418.384 349.911C418.465 349.833 418.563 349.775 418.67 349.74C418.789 349.701 418.914 349.688 419.039 349.702C419.163 349.715 419.283 349.756 419.39 349.82C419.502 349.886 419.596 349.977 419.666 350.087C419.735 350.196 419.778 350.321 419.79 350.45C419.806 350.673 419.738 350.894 419.6 351.07C419.53 350.899 419.45 350.732 419.36 350.57C419.304 350.461 419.217 350.37 419.11 350.31C418.998 350.24 418.871 350.196 418.74 350.18C418.561 350.154 418.378 350.157 418.2 350.19V350.19Z" fill="#C7C7C7"></path>
<path d="M424.24 342.34C424.253 342.495 424.235 342.651 424.187 342.798C424.139 342.946 424.062 343.083 423.96 343.2C423.85 343.328 423.715 343.433 423.564 343.509C423.413 343.584 423.249 343.629 423.08 343.64C422.907 343.65 422.734 343.62 422.575 343.552C422.415 343.485 422.273 343.381 422.16 343.25C421.947 343.024 421.823 342.73 421.81 342.42C422.002 342.608 422.213 342.776 422.44 342.92C422.62 343.03 422.829 343.086 423.04 343.08C423.261 343.064 423.474 342.991 423.66 342.87C423.882 342.727 424.078 342.548 424.24 342.34V342.34Z" fill="#C7C7C7"></path>
<path d="M422.2 342.21C422.173 342.1 422.172 341.985 422.196 341.874C422.221 341.763 422.27 341.659 422.34 341.57C422.42 341.472 422.518 341.392 422.63 341.333C422.742 341.275 422.864 341.24 422.99 341.23C423.119 341.221 423.249 341.244 423.367 341.296C423.485 341.348 423.589 341.429 423.67 341.53C423.81 341.705 423.878 341.927 423.86 342.15C423.707 342.045 423.547 341.952 423.38 341.87C423.269 341.813 423.145 341.786 423.02 341.79C422.888 341.801 422.76 341.835 422.64 341.89C422.482 341.98 422.334 342.087 422.2 342.21V342.21Z" fill="#C7C7C7"></path>
<path d="M407.1 345.26C407.118 345.416 407.103 345.574 407.057 345.723C407.01 345.873 406.933 346.012 406.83 346.13C406.72 346.258 406.585 346.363 406.434 346.439C406.283 346.514 406.119 346.559 405.95 346.57C405.776 346.579 405.601 346.549 405.44 346.481C405.279 346.414 405.136 346.311 405.02 346.18C404.815 345.949 404.692 345.658 404.67 345.35C404.867 345.536 405.081 345.704 405.31 345.85C405.49 345.961 405.699 346.017 405.91 346.01C406.131 345.992 406.344 345.92 406.53 345.8C406.754 345.659 406.948 345.476 407.1 345.26Z" fill="#C7C7C7"></path>
<path d="M405.07 345.14C405.043 345.03 405.042 344.915 405.066 344.804C405.091 344.693 405.14 344.589 405.21 344.5C405.287 344.402 405.384 344.32 405.494 344.262C405.604 344.203 405.725 344.169 405.85 344.16C405.979 344.15 406.109 344.173 406.227 344.225C406.346 344.277 406.45 344.358 406.53 344.46C406.602 344.545 406.657 344.644 406.692 344.75C406.726 344.856 406.739 344.969 406.73 345.08C406.577 344.975 406.417 344.882 406.25 344.8C406.14 344.74 406.015 344.712 405.89 344.72C405.758 344.731 405.63 344.765 405.51 344.82C405.352 344.91 405.204 345.017 405.07 345.14Z" fill="#C7C7C7"></path>
<path d="M370.11 60.15L373.55 56.72C374.021 56.2476 374.286 55.6074 374.286 54.94C374.286 54.2726 374.021 53.6324 373.55 53.16V53.16C373.317 52.9242 373.04 52.7369 372.735 52.6091C372.429 52.4813 372.101 52.4155 371.77 52.4155C371.439 52.4155 371.111 52.4813 370.805 52.6091C370.5 52.7369 370.223 52.9242 369.99 53.16L366.55 56.59C366.079 57.0624 365.814 57.7026 365.814 58.37C365.814 59.0374 366.079 59.6776 366.55 60.15V60.15C367.022 60.6214 367.663 60.8862 368.33 60.8862C368.997 60.8862 369.638 60.6214 370.11 60.15V60.15Z" fill="#EBEBEB"></path>
<path d="M417 94.19L419.18 89.85C419.331 89.555 419.421 89.233 419.447 88.9026C419.472 88.5723 419.431 88.2402 419.327 87.9257C419.223 87.6112 419.057 87.3206 418.84 87.0707C418.622 86.8207 418.357 86.6166 418.06 86.47V86.47C417.765 86.3206 417.443 86.231 417.113 86.2064C416.783 86.1819 416.451 86.2228 416.137 86.3269C415.823 86.431 415.532 86.5962 415.282 86.8129C415.032 87.0297 414.828 87.2938 414.68 87.59L412.5 91.93C412.204 92.5273 412.155 93.2174 412.365 93.8504C412.574 94.4833 413.026 95.0079 413.62 95.31C414.217 95.6091 414.908 95.6592 415.542 95.4492C416.175 95.2392 416.7 94.7863 417 94.19V94.19Z" fill="#EBEBEB"></path>
<path d="M387 50.45L389.58 50.09C389.908 50.0434 390.223 49.9327 390.508 49.7643C390.793 49.5958 391.042 49.3729 391.24 49.1082C391.439 48.8436 391.584 48.5424 391.666 48.2218C391.748 47.9013 391.767 47.5677 391.72 47.24V47.24C391.673 46.9124 391.563 46.5971 391.394 46.3122C391.226 46.0273 391.003 45.7784 390.738 45.5797C390.474 45.381 390.172 45.2363 389.852 45.154C389.531 45.0717 389.198 45.0534 388.87 45.1L386.29 45.47C385.962 45.5166 385.647 45.6273 385.362 45.7957C385.077 45.9642 384.828 46.1871 384.63 46.4518C384.431 46.7164 384.286 47.0176 384.204 47.3382C384.122 47.6587 384.103 47.9924 384.15 48.32V48.32C384.197 48.6473 384.307 48.9622 384.476 49.2466C384.644 49.531 384.868 49.7793 385.132 49.9772C385.397 50.1751 385.699 50.3188 386.019 50.3999C386.34 50.4811 386.673 50.4981 387 50.45V50.45Z" fill="#EBEBEB"></path>
<path d="M366.46 84.53L366.09 81.94C365.993 81.2801 365.639 80.6854 365.105 80.2861C364.571 79.8868 363.9 79.7156 363.24 79.81V79.81C362.912 79.8566 362.597 79.9673 362.312 80.1357C362.027 80.3042 361.778 80.5271 361.58 80.7918C361.381 81.0564 361.236 81.3576 361.154 81.6782C361.072 81.9987 361.053 82.3324 361.1 82.66L361.47 85.24C361.567 85.9006 361.92 86.4962 362.454 86.897C362.988 87.2979 363.659 87.4715 364.32 87.38V87.38C364.648 87.3334 364.963 87.2227 365.248 87.0543C365.533 86.8858 365.782 86.6629 365.98 86.3982C366.179 86.1336 366.324 85.8324 366.406 85.5118C366.488 85.1913 366.507 84.8576 366.46 84.53V84.53Z" fill="#EBEBEB"></path>
<path d="M421.83 79.44V76.12C421.83 74.9271 420.863 73.96 419.67 73.96H418.96C417.767 73.96 416.8 74.9271 416.8 76.12V79.44C416.8 80.6329 417.767 81.6 418.96 81.6H419.67C420.863 81.6 421.83 80.6329 421.83 79.44Z" fill="#EBEBEB"></path>
<path d="M382.28 106.41L384.8 107.09C385.444 107.261 386.13 107.17 386.708 106.836C387.285 106.503 387.707 105.954 387.88 105.31V105.31C387.966 104.99 387.989 104.657 387.946 104.328C387.903 104 387.796 103.683 387.631 103.396C387.465 103.109 387.245 102.857 386.982 102.656C386.72 102.454 386.42 102.306 386.1 102.22L383.58 101.55C383.261 101.464 382.928 101.442 382.6 101.485C382.272 101.528 381.956 101.635 381.67 101.8C381.384 101.966 381.133 102.186 380.933 102.448C380.732 102.711 380.585 103.011 380.5 103.33V103.33C380.414 103.649 380.392 103.982 380.435 104.31C380.478 104.638 380.585 104.954 380.75 105.24C380.916 105.526 381.136 105.777 381.398 105.977C381.661 106.178 381.96 106.325 382.28 106.41V106.41Z" fill="#EBEBEB"></path>
<path d="M391 105.74C407.044 105.74 420.05 92.7339 420.05 76.69C420.05 60.6461 407.044 47.64 391 47.64C374.956 47.64 361.95 60.6461 361.95 76.69C361.95 92.7339 374.956 105.74 391 105.74Z" fill="#EBEBEB"></path>
<path d="M401.57 59.46C401.642 60.8552 401.263 62.2366 400.49 63.4C399.715 64.601 398.626 65.5661 397.34 66.19C396.016 66.8547 394.487 66.9836 393.07 66.55C391.728 66.1267 390.578 65.2454 389.82 64.06C390.856 64.8214 392.048 65.3439 393.31 65.59C393.899 65.695 394.501 65.695 395.09 65.59C395.679 65.5048 396.25 65.3223 396.78 65.05C397.057 64.9171 397.328 64.7703 397.59 64.61C397.85 64.44 398.11 64.28 398.35 64.09C398.845 63.7169 399.297 63.2911 399.7 62.82C400.537 61.8327 401.172 60.6913 401.57 59.46V59.46Z" fill="#C7C7C7"></path>
<path d="M391.13 61.13C390.995 60.1615 391.207 59.1764 391.73 58.35C392.249 57.4841 393.011 56.789 393.92 56.35C394.381 56.1166 394.883 55.9769 395.398 55.9391C395.913 55.9014 396.43 55.9663 396.92 56.13C397.869 56.4434 398.658 57.1142 399.12 58C398.384 57.5464 397.564 57.2439 396.71 57.11C395.94 57.0201 395.161 57.1593 394.47 57.51C392.944 58.2577 391.753 59.5489 391.13 61.13Z" fill="#C7C7C7"></path>
<path d="M381.29 81.08C381.648 81.9644 381.673 82.9487 381.36 83.85C381.053 84.7867 380.467 85.6069 379.68 86.2C379.28 86.5143 378.82 86.7445 378.329 86.8768C377.837 87.0091 377.324 87.0408 376.82 86.97C375.871 86.8419 375.005 86.364 374.39 85.63C375.189 85.8948 376.029 86.0134 376.87 85.98C377.6 85.9211 378.297 85.6461 378.87 85.19C379.494 84.7198 380.021 84.1321 380.42 83.46C380.844 82.7223 381.138 81.9173 381.29 81.08V81.08Z" fill="#C7C7C7"></path>
<path d="M375.27 84.38C374.952 83.7806 374.883 83.0796 375.08 82.43C375.268 81.7508 375.676 81.153 376.24 80.73C376.531 80.5032 376.867 80.3398 377.225 80.2503C377.583 80.1607 377.956 80.147 378.32 80.21C378.66 80.2602 378.985 80.3814 379.274 80.5658C379.564 80.7502 379.811 80.9935 380 81.28C379.441 81.1666 378.867 81.1396 378.3 81.2C377.84 81.2682 377.406 81.4542 377.04 81.74C376.175 82.401 375.553 83.3291 375.27 84.38V84.38Z" fill="#C7C7C7"></path>
<path d="M370.87 74.62C371.128 74.8571 371.334 75.1444 371.477 75.4643C371.62 75.7841 371.696 76.1298 371.7 76.48C371.7 77.2285 371.405 77.9469 370.88 78.48C370.606 78.7585 370.271 78.9694 369.901 79.0961C369.531 79.2228 369.137 79.2618 368.75 79.21C368.059 79.1362 367.414 78.8294 366.92 78.34C367.526 78.3549 368.132 78.3148 368.73 78.22C369.201 78.1431 369.638 77.9232 369.98 77.59C370.327 77.2395 370.579 76.8056 370.71 76.33C370.859 75.7731 370.913 75.195 370.87 74.62V74.62Z" fill="#C7C7C7"></path>
<path d="M367.27 77.44C367.06 77.2941 366.885 77.102 366.761 76.8784C366.636 76.6548 366.564 76.4057 366.55 76.15C366.535 75.8701 366.579 75.5902 366.678 75.3284C366.778 75.0665 366.932 74.8286 367.13 74.63C367.332 74.4223 367.581 74.2672 367.856 74.1783C368.132 74.0893 368.425 74.0693 368.71 74.12C368.958 74.1555 369.196 74.2401 369.411 74.3689C369.625 74.4977 369.812 74.6681 369.96 74.87C369.546 74.926 369.135 75.0062 368.73 75.11C368.465 75.1843 368.224 75.3255 368.03 75.52C367.821 75.7292 367.654 75.9772 367.54 76.25C367.397 76.6328 367.306 77.0331 367.27 77.44V77.44Z" fill="#C7C7C7"></path>
<path d="M410.67 66C410.703 66.3484 410.664 66.6999 410.558 67.0332C410.451 67.3666 410.279 67.675 410.05 67.94C409.802 68.2333 409.496 68.4732 409.153 68.6451C408.809 68.817 408.434 68.9173 408.05 68.94C407.662 68.9611 407.274 68.8937 406.915 68.743C406.556 68.5923 406.237 68.3622 405.98 68.07C405.511 67.556 405.235 66.8949 405.2 66.2C405.638 66.6171 406.117 66.989 406.63 67.31C407.027 67.5694 407.496 67.6955 407.97 67.67C408.463 67.6368 408.941 67.4823 409.36 67.22C409.86 66.8868 410.302 66.4748 410.67 66V66Z" fill="#C7C7C7"></path>
<path d="M406.11 65.73C406.047 65.4823 406.043 65.2235 406.097 64.9737C406.15 64.724 406.261 64.49 406.42 64.29C406.593 64.0694 406.811 63.8878 407.059 63.7568C407.307 63.6259 407.58 63.5486 407.86 63.53C408.151 63.5126 408.442 63.5653 408.708 63.6836C408.974 63.802 409.208 63.9825 409.39 64.21C409.55 64.4015 409.671 64.6231 409.745 64.8617C409.819 65.1004 409.844 65.3514 409.82 65.6C409.474 65.3671 409.113 65.1566 408.74 64.97C408.494 64.8398 408.217 64.781 407.94 64.8C407.645 64.82 407.357 64.8946 407.09 65.02C406.734 65.2129 406.404 65.4516 406.11 65.73V65.73Z" fill="#C7C7C7"></path>
<path d="M402.832 82.4584C404.28 79.2099 402.837 75.4097 399.609 73.9703C396.38 72.531 392.589 73.9975 391.141 77.246C389.693 80.4945 391.136 84.2947 394.364 85.734C397.592 87.1734 401.383 85.7068 402.832 82.4584Z" fill="#DBDBDB"></path>
<path d="M400 76.84C400.836 77.2142 401.571 77.7807 402.147 78.4932C402.722 79.2057 403.12 80.0441 403.31 80.94C403.487 79.8773 403.392 78.7872 403.036 77.7704C402.68 76.7537 402.073 75.8432 401.272 75.123C400.471 74.4027 399.501 73.896 398.452 73.6497C397.404 73.4033 396.31 73.4253 395.272 73.7135C394.234 74.0018 393.285 74.547 392.513 75.2988C391.742 76.0506 391.172 76.9848 390.857 78.015C390.542 79.0452 390.491 80.1382 390.71 81.193C390.93 82.2478 391.411 83.2304 392.11 84.05C391.637 82.6625 391.708 81.1468 392.31 79.81C392.938 78.3984 394.1 77.2932 395.542 76.7365C396.983 76.1799 398.586 76.2171 400 76.84Z" fill="#C7C7C7"></path>
<path d="M405.88 81C405.917 82.7073 405.425 84.3842 404.47 85.8C403.501 87.2486 402.166 88.4148 400.6 89.18C398.993 89.9805 397.145 90.1482 395.42 89.65C393.787 89.1284 392.378 88.0714 391.42 86.65C392.671 87.6408 394.137 88.3257 395.7 88.65C396.074 88.7069 396.452 88.7437 396.83 88.76C397.202 88.7652 397.574 88.7351 397.94 88.67C398.657 88.5533 399.352 88.3274 400 88C400.34 87.83 400.69 87.64 401 87.45C401.31 87.26 401.65 87.03 401.94 86.78C402.554 86.3097 403.114 85.7731 403.61 85.18C404.648 83.9586 405.42 82.5353 405.88 81V81Z" fill="#C7C7C7"></path>
<path d="M412.91 83.39C413.373 83.5009 413.858 83.4718 414.304 83.3064C414.75 83.141 415.137 82.8468 415.415 82.4612C415.694 82.0755 415.851 81.6158 415.868 81.1404C415.885 80.665 415.76 80.1954 415.509 79.7911C415.258 79.3869 414.893 79.0663 414.46 78.87C414.026 78.6737 413.545 78.6106 413.075 78.6887C412.606 78.7668 412.171 78.9826 411.824 79.3086C411.478 79.6347 411.236 80.0563 411.13 80.52C410.986 81.1366 411.093 81.7851 411.426 82.3232C411.76 82.8613 412.294 83.245 412.91 83.39V83.39Z" fill="#DBDBDB"></path>
<path d="M414.34 79.73C414.674 79.8081 414.985 79.9637 415.247 80.1844C415.509 80.4051 415.716 80.6845 415.85 81C415.835 80.4685 415.645 79.9566 415.311 79.543C414.977 79.1293 414.516 78.8367 414 78.71C413.379 78.5697 412.728 78.6815 412.19 79.0209C411.652 79.3603 411.271 79.8995 411.13 80.52C411.025 80.96 411.049 81.4207 411.198 81.8477C411.347 82.2748 411.615 82.6503 411.97 82.93C411.693 82.4562 411.611 81.8934 411.74 81.36C411.869 80.7991 412.215 80.3123 412.702 80.0066C413.19 79.7009 413.779 79.6014 414.34 79.73Z" fill="#C7C7C7"></path>
<path d="M416.78 80.82C416.95 81.4426 416.908 82.1042 416.66 82.7C416.419 83.3169 416.011 83.8539 415.48 84.25C414.938 84.6716 414.253 84.8653 413.57 84.79C412.922 84.7136 412.323 84.4087 411.88 83.93C412.417 84.1752 413 84.3015 413.59 84.3C414.138 84.2774 414.666 84.0852 415.1 83.75C415.561 83.3979 415.947 82.9574 416.235 82.4543C416.524 81.9512 416.709 81.3956 416.78 80.82V80.82Z" fill="#C7C7C7"></path>
<path d="M396.44 98.94C397.114 98.9786 397.784 98.8164 398.365 98.474C398.947 98.1315 399.414 97.6243 399.707 97.0164C400 96.4085 400.106 95.7273 400.011 95.0591C399.917 94.3909 399.627 93.7657 399.177 93.2626C398.727 92.7596 398.138 92.4013 397.485 92.2331C396.831 92.065 396.142 92.0945 395.506 92.318C394.869 92.5415 394.313 92.9489 393.908 93.4887C393.503 94.0284 393.267 94.6762 393.23 95.35C393.181 96.2514 393.491 97.1355 394.093 97.8085C394.695 98.4815 395.539 98.8884 396.44 98.94V98.94Z" fill="#DBDBDB"></path>
<path d="M397.54 93.46C398.024 93.4867 398.494 93.6274 398.913 93.8708C399.332 94.1141 399.687 94.4531 399.95 94.86C399.836 94.2998 399.582 93.7775 399.212 93.3413C398.842 92.9052 398.369 92.5694 397.835 92.3649C397.301 92.1604 396.724 92.0939 396.157 92.1715C395.591 92.2491 395.053 92.4683 394.594 92.8088C394.134 93.1494 393.768 93.6002 393.53 94.1197C393.291 94.6392 393.187 95.2106 393.227 95.7809C393.268 96.3512 393.451 96.9021 393.761 97.3827C394.071 97.8632 394.497 98.2578 395 98.53C394.618 98.0668 394.378 97.5024 394.31 96.9055C394.243 96.3086 394.35 95.7049 394.619 95.1679C394.888 94.6308 395.307 94.1834 395.826 93.8802C396.345 93.5771 396.94 93.4311 397.54 93.46V93.46Z" fill="#C7C7C7"></path>
<path d="M401.22 94.38C401.548 95.2208 401.614 96.141 401.41 97.02C401.21 97.9196 400.771 98.7486 400.14 99.42C399.504 100.122 398.624 100.555 397.68 100.63C396.773 100.693 395.872 100.45 395.12 99.94C395.925 100.208 396.783 100.277 397.62 100.14C398.411 99.9903 399.133 99.5907 399.68 99C400.244 98.3969 400.673 97.6812 400.94 96.9C401.207 96.0884 401.302 95.2303 401.22 94.38V94.38Z" fill="#C7C7C7"></path>
<path d="M381.24 66C379.71 68.35 376.31 68.85 373.66 67.11C371.01 65.37 370.09 62.06 371.66 59.71C373.23 57.36 376.59 56.87 379.25 58.6C381.91 60.33 382.78 63.69 381.24 66Z" fill="#DBDBDB"></path>
<path d="M372.8 62C372.399 62.634 372.166 63.3592 372.123 64.1078C372.079 64.8563 372.226 65.6038 372.55 66.28C371.683 65.4631 371.12 64.3756 370.953 63.1962C370.786 62.0169 371.024 60.8157 371.63 59.79C373.16 57.44 376.56 56.94 379.22 58.68C380.107 59.2231 380.832 59.9935 381.321 60.9113C381.81 61.8292 382.044 62.8611 382 63.9C381.612 62.6624 380.802 61.6005 379.71 60.9C377.28 59.37 374.19 59.82 372.8 62Z" fill="#C7C7C7"></path>
<path d="M383.12 62.16C383.511 62.7669 383.779 63.4449 383.907 64.1553C384.036 64.8657 384.023 65.5945 383.87 66.3C383.703 67.028 383.379 67.7106 382.92 68.3C382.462 68.9045 381.9 69.4226 381.26 69.83C380.594 70.203 379.865 70.4504 379.11 70.56C378.381 70.6504 377.643 70.6302 376.92 70.5C375.527 70.2498 374.213 69.6779 373.08 68.83C374.367 69.204 375.692 69.4321 377.03 69.51C378.272 69.6012 379.515 69.3339 380.61 68.74C381.134 68.4362 381.604 68.0476 382 67.59C382.407 67.1289 382.726 66.5967 382.94 66.02C383.348 64.7733 383.41 63.4393 383.12 62.16V62.16Z" fill="#C7C7C7"></path>
<path d="M420.165 424.34C426.343 401.293 412.668 377.603 389.621 371.425C366.575 365.248 342.884 378.923 336.707 401.969C330.529 425.016 344.204 448.706 367.251 454.884C390.297 461.061 413.988 447.386 420.165 424.34Z" fill="#455A64"></path>
<path d="M416.74 399.89C411.46 399.353 406.128 399.65 400.94 400.77C391.8 402.6 370.47 412.58 358.57 414.32C341.84 416.78 335.57 411.15 333.21 407.63C333.951 402.145 335.744 396.855 338.49 392.05C341.87 395 352.98 403.77 378.58 396.58C391.78 392.86 400.17 383.24 403.02 379.98C409.414 385.158 414.177 392.072 416.74 399.89V399.89Z" fill="#37474F"></path>
<path d="M415.87 429.18C412.235 438.353 405.558 446 396.958 450.838C388.359 455.677 378.358 457.414 368.63 455.76C369.861 453.272 371.389 450.942 373.18 448.82C381.02 439.82 394.62 437.06 399.93 436.52C405.95 436.056 411.604 433.452 415.87 429.18V429.18Z" fill="#37474F"></path>
<path d="M418.36 406.64C418.43 407.03 418.48 407.41 418.53 407.8C418.58 408.19 418.62 408.51 418.66 408.86C418.74 409.66 418.81 410.46 418.84 411.25C418.87 412.04 418.9 412.69 418.9 413.39C418.9 413.66 418.9 413.92 418.9 414.19C418.9 414.46 418.9 414.79 418.9 415.08C418.9 415.37 418.9 415.68 418.9 415.98C418.9 416.28 418.85 416.68 418.82 417.04C418.79 417.4 418.76 417.74 418.72 418.04C418.68 418.34 418.64 418.64 418.61 418.94C418.52 419.6 418.42 420.24 418.3 420.89C416.58 423.1 413.44 424.89 407.96 426.2C399.8 428.2 388.67 427 373.2 431.26C363.731 433.942 355.177 439.168 348.47 446.37V446.37C341.63 440.703 336.72 433.05 334.42 424.47C336.61 422.8 344.57 418.74 368.93 420.63C376.587 421.318 384.294 421.217 391.93 420.33C409.93 417.97 416.14 410.56 418.2 406.72C418.252 406.691 418.305 406.664 418.36 406.64Z" fill="#37474F"></path>
<path d="M358.4 395.52C358.77 397.4 356.85 399.35 354.12 399.87C351.39 400.39 348.89 399.31 348.52 397.43C348.15 395.55 350.08 393.61 352.8 393.08C355.52 392.55 358 393.65 358.4 395.52Z" fill="#263238"></path>
<path d="M350.11 404.94C350.31 406 349.11 407.11 347.51 407.43C345.91 407.75 344.38 407.15 344.18 406.09C343.98 405.03 345.13 403.92 346.77 403.6C348.41 403.28 349.9 403.89 350.11 404.94Z" fill="#263238"></path>
<path d="M407.54 429.57C407.85 431.17 406.16 432.84 403.78 433.31C401.4 433.78 399.2 432.84 398.89 431.24C398.58 429.64 400.26 427.96 402.65 427.5C405.04 427.04 407.23 428 407.54 429.57Z" fill="#263238"></path>
<path d="M401.85 435.28C402.02 436.13 401.24 437 400.11 437.22C399.648 437.368 399.147 437.33 398.713 437.116C398.278 436.901 397.944 436.526 397.78 436.07C397.61 435.22 398.39 434.35 399.52 434.13C399.982 433.982 400.483 434.02 400.917 434.234C401.352 434.449 401.686 434.824 401.85 435.28V435.28Z" fill="#263238"></path>
<path d="M398.54 432.72C398.64 433.23 398.14 433.72 397.42 433.9C396.7 434.08 396.04 433.73 395.94 433.22C395.84 432.71 396.34 432.22 397.06 432.04C397.78 431.86 398.44 432.21 398.54 432.72Z" fill="#263238"></path>
<path d="M376.35 447.84C376.63 449.28 375.35 450.74 373.35 451.11C371.35 451.48 369.67 450.61 369.35 449.18C369.03 447.75 370.35 446.29 372.3 445.92C374.25 445.55 376.08 446.41 376.35 447.84Z" fill="#263238"></path>
<path d="M373.89 442.43C373.995 442.761 373.998 443.115 373.897 443.447C373.796 443.779 373.596 444.073 373.325 444.288C373.053 444.504 372.722 444.632 372.376 444.656C372.03 444.679 371.685 444.597 371.387 444.419C371.088 444.242 370.851 443.978 370.707 443.663C370.562 443.347 370.517 442.995 370.577 442.654C370.637 442.312 370.799 441.997 371.043 441.749C371.286 441.502 371.599 441.335 371.94 441.27C372.144 441.218 372.357 441.206 372.566 441.236C372.774 441.266 372.975 441.337 373.156 441.445C373.337 441.552 373.496 441.695 373.621 441.864C373.747 442.033 373.839 442.225 373.89 442.43V442.43Z" fill="#263238"></path>
<path d="M418.84 411.25C406.964 417.566 394.73 423.186 382.2 428.08C369.403 433.197 356.309 437.539 342.99 441.08C322.38 446.44 307.69 447.37 305.8 442.58C303.91 437.79 314.99 428.49 333.16 418.5C333.28 419.5 333.44 420.5 333.63 421.5L333.87 422.64C324.65 428.5 319.53 433.57 320.68 436.49C321.83 439.41 329.26 439.63 340.27 437.49C351.05 435.41 365.27 431.13 380.5 425.12C395.73 419.11 409.07 412.48 418.36 406.61C427.82 400.66 433.09 395.48 431.92 392.52C430.75 389.56 423.59 389.41 412.92 391.41C412.182 390.146 411.374 388.924 410.5 387.75C431.01 382.44 446.03 381.63 447.92 386.41C449.81 391.19 438.08 400.88 418.84 411.25Z" fill="#263238"></path>
<path d="M418.86 415.07C407.213 421.161 395.261 426.648 383.05 431.51V431.51C370.928 436.411 358.562 440.683 346 444.31C317.86 452.31 296.94 453.9 294.22 447.13C291.5 440.36 307.41 427.33 332.85 413.82C332.85 414.48 332.85 415.15 332.93 415.82C311.82 427.46 298.93 438.5 301.25 444.31C303.57 450.12 320.88 449.18 344.56 442.84C370.371 435.694 395.302 425.685 418.89 413C440.29 401.26 453.38 390.09 451.03 384.24C448.68 378.39 431.86 379.35 408.65 385.47C408.22 384.96 407.77 384.47 407.31 383.97C434.94 376.2 455.39 374.74 458.07 381.43C460.75 388.12 444.64 401.45 418.86 415.07Z" fill="#37474F"></path>
<path d="M194.2 208.66C189.773 207.976 185.474 206.627 181.45 204.66C162.09 195.26 160.01 172.48 157.81 148.36C155.81 126.14 153.68 103.17 138.14 89.3C105.79 60.46 54.79 81.49 54.28 81.71L50.09 71.83C60.6915 67.6615 71.8156 64.9697 83.15 63.83C108.15 61.31 129.67 67.33 145.27 81.25C163.98 97.93 166.38 124.18 168.49 147.34C170.49 169.27 172.22 188.21 186.13 194.96C215.29 209.11 234.57 173.77 235.37 172.26L244.85 177.26C240.525 184.928 234.921 191.801 228.28 197.58C217.57 206.71 206 210.43 194.2 208.66Z" fill="#FFC727"></path>
<path opacity="0.1" d="M194.2 208.66C189.773 207.976 185.474 206.627 181.45 204.66C162.09 195.26 160.01 172.48 157.81 148.36C155.81 126.14 153.68 103.17 138.14 89.3C105.79 60.46 54.79 81.49 54.28 81.71L50.09 71.83C60.6915 67.6615 71.8156 64.9697 83.15 63.83C108.15 61.31 129.67 67.33 145.27 81.25C163.98 97.93 166.38 124.18 168.49 147.34C170.49 169.27 172.22 188.21 186.13 194.96C215.29 209.11 234.57 173.77 235.37 172.26L244.85 177.26C240.525 184.928 234.921 191.801 228.28 197.58C217.57 206.71 206 210.43 194.2 208.66Z" fill="black"></path>
<path opacity="0.1" d="M244.85 177.29C240.527 184.956 234.922 191.826 228.28 197.6C221.84 203.08 215.08 206.6 208.15 208.16L196.08 198C219.6 201.15 234.66 173.55 235.38 172.23L244.85 177.29Z" fill="black"></path>
<path d="M278.67 229.5C277.72 230.06 221.1 211.19 218.67 209.44C218.554 209.358 218.45 209.26 218.36 209.15C215.59 206.42 205.12 187.15 204.36 185.64C202.52 181.79 259.57 133.71 270.18 129.25C272.84 128.13 307.69 140.59 312.91 145.65C315.15 147.82 319.36 156.6 319.13 157.8C318.76 159.52 279.63 228.94 278.67 229.5Z" fill="#FFC727"></path>
<path opacity="0.1" d="M278.67 229.5C277.72 230.06 221.1 211.19 218.67 209.44C218.554 209.358 218.45 209.26 218.36 209.15C215.59 206.42 205.12 187.15 204.36 185.64C202.52 181.79 259.57 133.71 270.18 129.25C272.84 128.13 307.69 140.59 312.91 145.65C315.15 147.82 319.36 156.6 319.13 157.8C318.76 159.52 279.63 228.94 278.67 229.5Z" fill="black"></path>
<path opacity="0.1" d="M278.67 229.5C277.72 230.06 221.1 211.19 218.67 209.44C218.554 209.358 218.45 209.26 218.36 209.15C228.6 197.3 276.72 141.73 277.58 141.59C278.44 141.45 311.42 154.24 319.14 157.81C318.76 159.52 279.63 228.94 278.67 229.5Z" fill="black"></path>
<path d="M196.48 344.63L151.36 367.36C142.72 371.65 135.22 375.58 131.53 377.97C131.511 377.963 131.489 377.963 131.47 377.97C130.07 378.87 129.23 379.54 129.11 379.97V380.05C128.65 383.49 160.98 453.58 162.93 455.64C164.88 457.7 170.93 452.31 171.84 448.59C172.75 444.87 172.37 412.49 172.37 412.49L217.22 389.36L196.48 344.63Z" fill="#455A64"></path>
<path d="M122.25 383L123.86 386.65C124.28 386.497 124.723 386.419 125.17 386.42C126.039 386.422 126.882 386.713 127.567 387.249C128.251 387.785 128.736 388.533 128.947 389.377C129.157 390.22 129.08 391.109 128.727 391.903C128.374 392.697 127.766 393.351 127 393.76L128.45 397.08C128.884 396.915 129.345 396.83 129.81 396.83C130.683 396.829 131.53 397.123 132.217 397.662C132.903 398.202 133.387 398.956 133.593 399.804C133.798 400.653 133.713 401.545 133.349 402.339C132.986 403.133 132.366 403.781 131.59 404.18L133.05 407.51C133.491 407.328 133.963 407.236 134.44 407.24C135.472 407.24 136.461 407.65 137.191 408.379C137.92 409.109 138.33 410.098 138.33 411.13C138.335 411.853 138.136 412.564 137.755 413.179C137.375 413.795 136.829 414.291 136.18 414.61L137.64 417.92C138.103 417.742 138.594 417.651 139.09 417.65C139.973 417.647 140.832 417.945 141.523 418.494C142.215 419.044 142.699 419.813 142.896 420.674C143.092 421.535 142.99 422.438 142.605 423.233C142.221 424.028 141.577 424.669 140.78 425.05L142.24 428.36C142.709 428.163 143.212 428.061 143.72 428.06C144.608 428.056 145.47 428.357 146.163 428.911C146.857 429.465 147.34 430.239 147.533 431.106C147.726 431.972 147.616 432.878 147.223 433.674C146.829 434.47 146.176 435.107 145.37 435.48L146.83 438.79C147.307 438.573 147.826 438.464 148.35 438.47C149.237 438.474 150.097 438.78 150.787 439.338C151.477 439.896 151.955 440.673 152.144 441.54C152.333 442.407 152.22 443.313 151.825 444.107C151.43 444.902 150.775 445.538 149.97 445.91L151.43 449.23C151.921 448.998 152.457 448.878 153 448.88C153.891 448.885 154.753 449.195 155.444 449.759C156.134 450.322 156.61 451.105 156.794 451.977C156.977 452.849 156.857 453.757 156.452 454.551C156.048 455.345 155.383 455.976 154.57 456.34L155.94 459.46L162.94 455.67L129.11 380L122.25 383Z" fill="#37474F"></path>
<path d="M144.47 373.18C145.633 375.13 146.378 377.301 146.657 379.555C146.936 381.808 146.743 384.095 146.09 386.27C144.91 389.83 142.57 393.63 138.81 395.57C138.7 395.63 138.59 395.43 138.69 395.36C145.09 390.44 147.69 380.67 144.25 373.3C144.244 373.272 144.246 373.243 144.258 373.217C144.27 373.191 144.289 373.17 144.314 373.156C144.339 373.143 144.368 373.138 144.396 373.142C144.424 373.146 144.45 373.16 144.47 373.18V373.18Z" fill="#37474F"></path>
<path d="M153.72 369.74C156.6 374.51 159.09 379.52 161.52 384.53C163.95 389.54 166.3 394.47 168.65 399.46C169.99 402.32 171.33 405.19 172.51 408.12C172.529 408.158 172.531 408.203 172.517 408.243C172.503 408.283 172.473 408.316 172.435 408.335C172.397 408.354 172.352 408.356 172.312 408.342C172.272 408.328 172.239 408.298 172.22 408.26C169.41 403.45 166.95 398.42 164.43 393.46C161.91 388.5 159.43 383.61 157.09 378.63C155.72 375.77 154.44 372.89 153.29 369.94C153.274 369.885 153.279 369.826 153.302 369.774C153.326 369.722 153.368 369.68 153.419 369.656C153.471 369.632 153.53 369.627 153.585 369.642C153.64 369.658 153.688 369.692 153.72 369.74Z" fill="#37474F"></path>
<path d="M157.88 368.33C160.77 373.1 163.25 378.11 165.68 383.13C168.11 388.15 170.46 393.07 172.81 398.06C174.15 400.92 175.49 403.79 176.67 406.71C176.679 406.729 176.685 406.75 176.686 406.771C176.687 406.792 176.684 406.813 176.677 406.833C176.67 406.853 176.659 406.871 176.645 406.887C176.631 406.903 176.614 406.916 176.595 406.925C176.576 406.934 176.555 406.94 176.534 406.941C176.513 406.942 176.492 406.939 176.472 406.932C176.452 406.925 176.434 406.914 176.418 406.9C176.402 406.886 176.389 406.869 176.38 406.85C173.57 402.04 171.11 397.01 168.59 392.05C166.07 387.09 163.59 382.2 161.25 377.22C159.89 374.36 158.6 371.48 157.45 368.53C157.434 368.475 157.439 368.416 157.462 368.364C157.486 368.312 157.528 368.27 157.579 368.246C157.631 368.222 157.69 368.217 157.745 368.232C157.8 368.248 157.848 368.282 157.88 368.33V368.33Z" fill="#37474F"></path>
<path d="M164.81 360.58L188.14 404.34C188.14 404.34 195.14 405.85 203.82 401.83C223.03 392.96 255.19 372.32 271.27 356.47C287.89 340.08 304.2 225.2 304.2 225.2L265 202.58C265 202.58 244.64 310.91 237.16 318.73C230.41 325.79 191.27 341.24 172.82 350.9C168.98 352.947 166.102 356.425 164.81 360.58Z" fill="#FFC727"></path>
<path d="M173.21 360.06C176.28 364.72 178.96 369.62 181.59 374.54C184.22 379.46 186.75 384.28 189.29 389.18C190.75 391.98 192.2 394.8 193.5 397.67C193.51 397.707 193.508 397.746 193.493 397.782C193.479 397.817 193.452 397.847 193.419 397.865C193.385 397.884 193.346 397.89 193.308 397.884C193.27 397.878 193.236 397.859 193.21 397.83C190.21 393.13 187.56 388.2 184.84 383.34C182.12 378.48 179.49 373.69 176.92 368.81C175.45 366.01 174.05 363.18 172.79 360.28C172.772 360.226 172.773 360.167 172.795 360.114C172.816 360.061 172.855 360.017 172.906 359.991C172.957 359.964 173.015 359.956 173.071 359.969C173.127 359.982 173.176 360.014 173.21 360.06V360.06Z" fill="#263238"></path>
<path opacity="0.1" d="M251.64 268.16L304.2 225.16L265 202.58C265 202.58 258.6 236.8 251.64 268.16Z" fill="black"></path>
<path opacity="0.1" d="M260.8 339.2C259.409 339.388 257.993 339.258 256.66 338.82C255.322 338.413 254.031 337.863 252.81 337.18C250.408 335.812 248.199 334.13 246.24 332.18C245.24 331.18 244.36 330.18 243.47 329.18C242.58 328.18 241.77 327.05 241.02 325.92C240.27 324.79 239.56 323.63 238.91 322.45C238.26 321.27 237.68 320.02 237.19 318.74C238.237 319.608 239.238 320.529 240.19 321.5C241.13 322.45 242.11 323.36 243 324.32C243.89 325.28 244.86 326.18 245.75 327.14L247.14 328.52C247.6 328.98 248.03 329.47 248.51 329.9C250.36 331.72 252.25 333.46 254.23 335.09C256.177 336.814 258.398 338.203 260.8 339.2Z" fill="black"></path>
<path d="M280.715 350.408C285.068 341.238 283.322 331.3 276.816 328.212C270.31 325.124 261.507 330.055 257.155 339.226C252.802 348.396 254.548 358.334 261.054 361.422C267.56 364.51 276.363 359.579 280.715 350.408Z" fill="#FFC727"></path>
<path opacity="0.1" d="M280.715 350.408C285.068 341.238 283.322 331.3 276.816 328.212C270.31 325.124 261.507 330.055 257.155 339.226C252.802 348.396 254.548 358.334 261.054 361.422C267.56 364.51 276.363 359.579 280.715 350.408Z" fill="black"></path>
<path d="M187.77 245.91L175.85 196.82C173.62 187.43 171.5 179.23 170.01 175.1C170.01 175.1 170.01 175.1 170.01 175.03C169.764 174.024 169.292 173.087 168.63 172.29C168.63 172.29 168.63 172.29 168.56 172.29C165.32 171.06 89.73 186.67 87.28 188.11C84.83 189.55 88.71 196.64 92.13 198.38C95.55 200.12 127.13 207.07 127.13 207.07L139.51 256L187.77 245.91Z" fill="#455A64"></path>
<path d="M167.23 164.93L163.31 165.67C163.369 166.113 163.349 166.564 163.25 167C163.053 167.848 162.577 168.606 161.899 169.153C161.221 169.7 160.379 170.004 159.508 170.016C158.637 170.029 157.787 169.75 157.093 169.223C156.399 168.696 155.902 167.952 155.68 167.11L152.12 167.78C152.181 168.24 152.158 168.708 152.05 169.16C151.852 170.009 151.375 170.767 150.694 171.313C150.014 171.858 149.17 172.159 148.298 172.167C147.425 172.175 146.576 171.89 145.886 171.357C145.195 170.825 144.704 170.075 144.49 169.23L140.92 169.89C141.009 170.359 141.009 170.841 140.92 171.31C140.685 172.316 140.059 173.188 139.182 173.733C138.305 174.279 137.246 174.454 136.24 174.22C135.536 174.061 134.891 173.706 134.38 173.197C133.868 172.687 133.511 172.044 133.35 171.34L129.79 172.01C129.856 172.5 129.832 172.998 129.72 173.48C129.522 174.337 129.039 175.101 128.351 175.648C127.663 176.196 126.809 176.494 125.93 176.494C125.051 176.494 124.197 176.196 123.509 175.648C122.821 175.101 122.338 174.337 122.14 173.48L118.58 174.15C118.684 174.781 118.63 175.428 118.425 176.033C118.219 176.638 117.867 177.184 117.4 177.621C116.934 178.058 116.367 178.373 115.749 178.538C115.132 178.704 114.483 178.715 113.86 178.57C113.137 178.4 112.478 178.027 111.959 177.496C111.44 176.965 111.083 176.297 110.93 175.57L107.38 176.25C107.49 176.761 107.49 177.289 107.38 177.8C107.178 178.667 106.685 179.438 105.984 179.986C105.283 180.534 104.416 180.826 103.526 180.813C102.636 180.801 101.777 180.484 101.092 179.916C100.407 179.348 99.9371 178.562 99.76 177.69L96.2 178.36C96.3198 178.89 96.3198 179.44 96.2 179.97C96.0017 180.844 95.5078 181.623 94.8017 182.174C94.0956 182.726 93.2207 183.017 92.3247 182.999C91.4288 182.98 90.5668 182.652 89.8845 182.071C89.2022 181.49 88.7414 180.691 88.58 179.81L85.23 180.44L87.34 188.07L168.7 172.3L167.23 164.93Z" fill="#37474F"></path>
<path d="M171.74 188.79C169.576 189.481 167.293 189.715 165.034 189.475C162.775 189.236 160.591 188.529 158.62 187.4C155.42 185.4 152.25 182.31 151.21 178.2C151.21 178.09 151.4 178.02 151.45 178.14C154.79 185.48 163.72 190.2 171.67 188.55C171.698 188.55 171.726 188.559 171.748 188.576C171.771 188.593 171.788 188.616 171.796 188.644C171.803 188.671 171.802 188.7 171.792 188.726C171.782 188.753 171.764 188.775 171.74 188.79V188.79Z" fill="#37474F"></path>
<path d="M173 198.58C167.7 200.31 162.26 201.58 156.82 202.82C151.38 204.06 146.06 205.23 140.66 206.38C137.58 207.04 134.48 207.7 131.36 208.19C131.318 208.199 131.273 208.191 131.237 208.168C131.2 208.144 131.174 208.107 131.165 208.065C131.156 208.023 131.164 207.978 131.187 207.942C131.211 207.905 131.248 207.879 131.29 207.87C136.61 206.22 142.06 204.97 147.47 203.63C152.88 202.29 158.19 201.02 163.58 199.84C166.67 199.16 169.76 198.56 172.9 198.12C172.955 198.119 173.01 198.137 173.053 198.172C173.097 198.206 173.127 198.255 173.139 198.309C173.15 198.363 173.143 198.42 173.118 198.469C173.093 198.519 173.051 198.558 173 198.58Z" fill="#37474F"></path>
<path d="M173.43 203C168.12 204.73 162.68 206 157.25 207.24C151.82 208.48 146.48 209.65 141.09 210.8C138 211.46 134.9 212.12 131.78 212.61C131.738 212.618 131.694 212.609 131.658 212.584C131.622 212.56 131.598 212.522 131.59 212.48C131.582 212.438 131.591 212.394 131.616 212.358C131.64 212.322 131.678 212.298 131.72 212.29C137.04 210.64 142.49 209.39 147.89 208.06C153.29 206.73 158.62 205.45 164 204.26C167.1 203.59 170.19 202.99 173.33 202.54C173.386 202.539 173.44 202.557 173.483 202.592C173.527 202.626 173.557 202.675 173.569 202.729C173.58 202.783 173.573 202.84 173.548 202.889C173.523 202.939 173.481 202.978 173.43 203V203Z" fill="#37474F"></path>
<path d="M304.26 225.23C304.26 225.23 293.4 237.13 284.18 246.48C277.45 253.32 271.23 259.14 269.58 259.17C267.71 259.17 259.2 258.27 256.38 257.9C256.38 257.9 214.44 304.04 192.91 315.2C185.54 319.02 162.39 315.1 155.69 303.78C144.82 285.41 133.79 257.65 129.76 240.19C127.96 232.4 129.81 223.98 129.81 223.98L179.4 210.28C179.4 210.28 184.76 219.21 186.4 224.82C188.82 233.29 190.99 259.23 190.99 259.23C204.4 249.65 217.46 231.95 217.46 231.95C217.46 231.95 221.32 211.39 245.46 191.2L304.26 225.23Z" fill="#FFC727"></path>
<path d="M269.53 258.92C263.251 257.882 256.894 257.394 250.53 257.46C250.486 257.47 250.446 257.495 250.418 257.53C250.39 257.566 250.374 257.61 250.374 257.655C250.374 257.7 250.39 257.744 250.418 257.78C250.446 257.815 250.486 257.84 250.53 257.85C256.82 258.52 263.16 259.35 269.47 259.68C269.52 259.684 269.57 259.678 269.618 259.663C269.665 259.647 269.709 259.622 269.747 259.59C269.786 259.557 269.817 259.518 269.84 259.473C269.862 259.429 269.876 259.38 269.88 259.33C269.884 259.28 269.878 259.23 269.863 259.182C269.847 259.135 269.822 259.091 269.79 259.053C269.757 259.014 269.718 258.983 269.673 258.96C269.629 258.938 269.58 258.924 269.53 258.92Z" fill="#263238"></path>
<path d="M290.7 225.07C290.78 224.88 290.49 224.67 290.39 224.86C287.205 230.514 283.737 236.005 280 241.31C278.3 243.79 268.08 257.02 264.15 253.43C263.49 252.82 263.53 251.86 264.05 250.65C264.68 249.2 266.14 247.81 267.14 246.57C269.34 243.83 271.45 241.03 273.42 238.13C277.146 232.761 280.306 227.02 282.85 221C282.862 220.962 282.86 220.92 282.844 220.883C282.828 220.846 282.8 220.816 282.764 220.798C282.728 220.78 282.686 220.775 282.647 220.785C282.608 220.794 282.574 220.817 282.55 220.85C278.259 228.799 273.372 236.41 267.93 243.62C265.25 247.05 260.18 251.62 263.78 254.42C267.38 257.22 275.35 249.25 277.3 246.94C282.694 240.26 287.198 232.909 290.7 225.07Z" fill="#263238"></path>
<path d="M264.07 253.88C263.119 254.628 262.217 255.436 261.37 256.3C260.639 256.924 260.029 257.676 259.57 258.52C259.5 258.69 259.7 258.82 259.85 258.76C260.734 258.285 261.539 257.678 262.24 256.96C263.11 256.23 263.99 255.52 264.83 254.76C264.888 254.71 264.935 254.649 264.969 254.581C265.004 254.513 265.024 254.439 265.03 254.362C265.035 254.286 265.026 254.21 265.002 254.137C264.978 254.065 264.94 253.998 264.89 253.94C264.84 253.882 264.779 253.835 264.711 253.801C264.643 253.766 264.569 253.746 264.492 253.74C264.416 253.735 264.34 253.744 264.267 253.768C264.195 253.792 264.128 253.83 264.07 253.88V253.88Z" fill="#263238"></path>
<path d="M136.76 230.07C141.94 228.28 147.27 226.93 152.6 225.63C157.93 224.33 163.14 223.09 168.43 221.87C171.43 221.17 174.49 220.47 177.55 219.94C177.588 219.94 177.625 219.953 177.655 219.976C177.684 219.999 177.706 220.032 177.715 220.069C177.724 220.106 177.721 220.144 177.705 220.179C177.69 220.214 177.663 220.242 177.63 220.26C172.42 221.98 167.08 223.26 161.79 224.7C156.5 226.14 151.29 227.44 146 228.7C143 229.42 139.94 230.06 136.86 230.54C136.798 230.553 136.733 230.541 136.679 230.507C136.626 230.472 136.588 230.417 136.575 230.355C136.562 230.293 136.574 230.228 136.608 230.174C136.643 230.121 136.698 230.083 136.76 230.07V230.07Z" fill="#263238"></path>
<path opacity="0.1" d="M183.14 297.2C182.254 295.736 181.739 294.078 181.64 292.37C181.54 291.53 181.54 290.69 181.49 289.84C181.44 288.99 181.49 288.16 181.57 287.32C181.816 283.991 182.378 280.693 183.25 277.47C184.097 274.269 185.166 271.132 186.45 268.08C187.702 265.01 189.207 262.05 190.95 259.23C190.44 262.53 189.63 265.71 188.84 268.87C188.05 272.03 187.2 275.16 186.36 278.28C185.52 281.4 184.72 284.52 184.05 287.66C183.74 289.22 183.41 290.8 183.22 292.38C182.923 293.971 182.896 295.6 183.14 297.2V297.2Z" fill="black"></path>
<path d="M181.55 319.98C191.701 319.98 199.93 314.142 199.93 306.94C199.93 299.738 191.701 293.9 181.55 293.9C171.399 293.9 163.17 299.738 163.17 306.94C163.17 314.142 171.399 319.98 181.55 319.98Z" fill="#FFC727"></path>
<path opacity="0.1" d="M181.55 319.98C191.701 319.98 199.93 314.142 199.93 306.94C199.93 299.738 191.701 293.9 181.55 293.9C171.399 293.9 163.17 299.738 163.17 306.94C163.17 314.142 171.399 319.98 181.55 319.98Z" fill="black"></path>
<path d="M302.93 165.7C332.33 177.4 355.86 182.13 365.16 179.42C373.3 177.04 396.52 167.05 407.82 156.22C411.23 152.96 395.82 130.7 391.1 132.47C386.38 134.24 362.72 147.54 356.54 149.73C353.03 150.97 314.77 152.4 306.07 152.55C291.55 152.81 289.88 160.51 302.93 165.7Z" fill="#F7A9A0"></path>
<path d="M423.09 141.39C422.02 143.03 422.87 143.61 426.17 142.48C429.47 141.35 441.54 134.12 443.71 138.55C445.88 142.98 428.71 152.94 423.06 154.39C417.41 155.84 407.82 156.22 407.82 156.22C410.78 153.61 417.35 146.59 423.09 141.39Z" fill="#455A64"></path>
<path d="M391.1 132.47C399.7 125.47 409.97 116.12 422.37 114.18C423.735 113.934 425.143 114.152 426.37 114.8C431.91 113.8 434.03 116.16 434.03 116.16C439.47 116.84 441.31 119.52 441.31 119.52C441.31 119.52 447.82 118.46 449.12 122.29C450.59 126.59 441.12 127.24 436.17 130.77C424.78 138.86 410.86 153.56 407.8 156.22L391.1 132.47Z" fill="#455A64"></path>
<path d="M418.3 130.86C421.605 128.455 425.07 126.276 428.67 124.34C432.741 122.468 436.946 120.904 441.25 119.66C441.273 119.649 441.292 119.631 441.303 119.608C441.314 119.585 441.317 119.559 441.311 119.534C441.305 119.51 441.291 119.488 441.271 119.472C441.25 119.457 441.225 119.449 441.2 119.45C432.648 121.029 424.693 124.924 418.2 130.71C418 130.84 418.12 131 418.3 130.86Z" fill="#263238"></path>
<path d="M412.41 124.7C415.84 122.63 421.9 119.03 434.08 116.29V116.22C426.194 116.915 418.658 119.796 412.32 124.54C412.11 124.68 412.18 124.84 412.41 124.7Z" fill="#263238"></path>
<path d="M409.31 121.33C415.31 118.03 419.46 116.71 426.37 114.84V114.76C418.29 116.06 415.51 117.45 409.18 121.14C409 121.26 409.08 121.46 409.31 121.33Z" fill="#263238"></path>
<path d="M391.1 132.47L407.82 156.22C407.062 159.4 405.411 162.298 403.06 164.57C399.14 168.36 368.58 181.02 359.12 181.16C349.66 181.3 312.7 172 299.46 165.3C286.22 158.6 293.31 152.8 303.01 152.14C312.71 151.48 353.3 149.14 355.63 148.57C357.96 148 377.21 135.85 381.29 133.73C385.37 131.61 391.1 132.47 391.1 132.47Z" fill="#FFC727"></path>
<path opacity="0.1" d="M299.46 165.3C309.05 170.15 331.07 176.36 346.08 179.38L301.91 152.23C292.8 153.25 286.73 158.86 299.46 165.3Z" fill="black"></path>
<path opacity="0.1" d="M384.8 135.23C387.32 138.46 389.67 141.82 392 145.23C394.33 148.64 396.59 151.91 398.87 155.23C400.17 157.14 401.48 159.07 402.71 161.03C402.8 161.16 402.71 161.23 402.59 161.11C400.1 157.87 397.76 154.49 395.39 151.11C393.02 147.73 390.72 144.48 388.39 141.11C387.08 139.19 385.8 137.26 384.58 135.28C384.5 135.16 384.67 135.06 384.8 135.23Z" fill="black"></path>
<path d="M304.2 225.2L245.4 191.2C244.719 187.74 245.419 184.151 247.35 181.2C254.82 168.99 272.71 148.89 288.69 141.49C300.21 136.17 309.27 140.68 312.69 149.17C313.56 151.32 322.02 179.26 320.97 189.22C319.86 199.76 314.74 212.82 310.14 219.98C308.624 222.186 306.582 223.98 304.2 225.2Z" fill="#FFC727"></path>
<path d="M303.73 228.78C304.6 228.91 307.2 224.11 306.96 223.41C306.72 222.71 245.63 187.73 245.18 187.65C244.73 187.57 241.76 193.47 242.3 193.9C242.84 194.33 302.57 228.6 303.73 228.78Z" fill="#FFC727"></path>
<path opacity="0.1" d="M303.73 228.78C304.6 228.91 307.2 224.11 306.96 223.41C306.72 222.71 245.63 187.73 245.18 187.65C244.73 187.57 241.76 193.47 242.3 193.9C242.84 194.33 302.57 228.6 303.73 228.78Z" fill="black"></path>
<path d="M291.84 189.35L321.45 195.58L322.11 169.34L292.5 163.11L291.84 189.35Z" fill="#FFC727"></path>
<path opacity="0.2" d="M291.84 189.35L321.45 195.58L322.11 169.34L292.5 163.11L291.84 189.35Z" fill="black"></path>
<path opacity="0.1" d="M291.84 189.35L295.59 190.14L296.25 163.9L292.5 163.11L291.84 189.35Z" fill="black"></path>
<path opacity="0.1" d="M316.88 174.4C316.864 174.85 317 175.293 317.267 175.656C317.534 176.019 317.916 176.281 318.35 176.4C318.547 176.439 318.75 176.432 318.944 176.379C319.137 176.327 319.316 176.231 319.467 176.099C319.618 175.967 319.736 175.801 319.813 175.616C319.89 175.431 319.923 175.23 319.91 175.03C319.925 174.578 319.788 174.135 319.519 173.772C319.25 173.409 318.866 173.147 318.43 173.03C318.234 172.991 318.031 172.998 317.838 173.05C317.644 173.102 317.466 173.198 317.316 173.331C317.166 173.464 317.048 173.629 316.973 173.815C316.897 174 316.865 174.2 316.88 174.4V174.4Z" fill="black"></path>
<path opacity="0.1" d="M316.74 180C316.724 180.45 316.86 180.893 317.127 181.256C317.394 181.619 317.776 181.881 318.21 182C318.407 182.041 318.611 182.035 318.806 181.984C319 181.933 319.18 181.837 319.331 181.704C319.483 181.571 319.601 181.405 319.677 181.219C319.753 181.032 319.785 180.831 319.77 180.63C319.786 180.18 319.65 179.737 319.383 179.374C319.116 179.011 318.734 178.749 318.3 178.63C318.103 178.589 317.899 178.595 317.704 178.646C317.51 178.697 317.33 178.793 317.179 178.926C317.027 179.059 316.909 179.225 316.833 179.411C316.757 179.598 316.725 179.799 316.74 180Z" fill="black"></path>
<path opacity="0.1" d="M316.6 185.5C316.584 185.95 316.72 186.393 316.987 186.756C317.254 187.119 317.636 187.381 318.07 187.5C318.268 187.539 318.472 187.532 318.666 187.479C318.861 187.426 319.04 187.329 319.191 187.196C319.342 187.062 319.46 186.896 319.537 186.709C319.613 186.523 319.645 186.321 319.63 186.12C319.646 185.67 319.51 185.227 319.243 184.864C318.976 184.501 318.594 184.239 318.16 184.12C317.962 184.079 317.757 184.084 317.562 184.136C317.366 184.188 317.186 184.285 317.034 184.419C316.883 184.553 316.765 184.721 316.689 184.908C316.614 185.096 316.583 185.298 316.6 185.5V185.5Z" fill="black"></path>
<path opacity="0.1" d="M312.16 173.41C312.144 173.86 312.28 174.303 312.547 174.666C312.814 175.029 313.196 175.291 313.63 175.41C313.827 175.451 314.031 175.445 314.226 175.394C314.42 175.343 314.6 175.247 314.751 175.114C314.903 174.981 315.021 174.815 315.097 174.629C315.173 174.442 315.205 174.241 315.19 174.04C315.206 173.59 315.07 173.147 314.803 172.784C314.536 172.421 314.154 172.159 313.72 172.04C313.523 172.001 313.32 172.008 313.126 172.061C312.933 172.113 312.754 172.209 312.603 172.341C312.452 172.473 312.334 172.639 312.257 172.824C312.18 173.009 312.147 173.21 312.16 173.41V173.41Z" fill="black"></path>
<path opacity="0.1" d="M312 179C311.984 179.45 312.12 179.893 312.387 180.256C312.654 180.619 313.036 180.881 313.47 181C313.667 181.041 313.871 181.035 314.066 180.984C314.26 180.933 314.44 180.837 314.591 180.704C314.743 180.571 314.861 180.405 314.937 180.219C315.013 180.032 315.045 179.831 315.03 179.63C315.046 179.18 314.91 178.737 314.643 178.374C314.376 178.011 313.994 177.749 313.56 177.63C313.363 177.589 313.159 177.595 312.964 177.646C312.77 177.697 312.59 177.793 312.439 177.926C312.287 178.059 312.169 178.225 312.093 178.411C312.017 178.598 311.985 178.799 312 179V179Z" fill="black"></path>
<path opacity="0.1" d="M311.88 184.51C311.865 184.962 312.002 185.405 312.271 185.768C312.54 186.131 312.924 186.393 313.36 186.51C313.557 186.551 313.76 186.546 313.954 186.494C314.149 186.443 314.328 186.347 314.479 186.214C314.629 186.081 314.747 185.915 314.822 185.728C314.896 185.542 314.927 185.34 314.91 185.14C314.926 184.69 314.79 184.247 314.523 183.884C314.256 183.521 313.874 183.259 313.44 183.14C313.243 183.101 313.04 183.108 312.846 183.161C312.653 183.213 312.474 183.309 312.323 183.441C312.172 183.573 312.054 183.739 311.977 183.924C311.9 184.109 311.867 184.31 311.88 184.51V184.51Z" fill="black"></path>
<path opacity="0.1" d="M307.44 172.42C307.425 172.872 307.562 173.315 307.831 173.678C308.1 174.041 308.484 174.303 308.92 174.42C309.117 174.457 309.321 174.448 309.514 174.395C309.708 174.341 309.887 174.244 310.037 174.111C310.188 173.978 310.306 173.812 310.382 173.627C310.459 173.441 310.493 173.24 310.48 173.04C310.495 172.588 310.358 172.145 310.089 171.782C309.82 171.419 309.436 171.157 309 171.04C308.803 171.003 308.599 171.012 308.406 171.065C308.212 171.119 308.033 171.216 307.883 171.349C307.732 171.482 307.614 171.648 307.538 171.833C307.461 172.019 307.427 172.22 307.44 172.42V172.42Z" fill="black"></path>
<path opacity="0.1" d="M307.31 178C307.294 178.45 307.43 178.893 307.697 179.256C307.964 179.619 308.346 179.881 308.78 180C308.977 180.039 309.18 180.032 309.374 179.979C309.567 179.927 309.746 179.831 309.897 179.699C310.048 179.567 310.166 179.401 310.243 179.216C310.32 179.031 310.353 178.83 310.34 178.63C310.355 178.178 310.218 177.735 309.949 177.372C309.68 177.009 309.296 176.747 308.86 176.63C308.664 176.591 308.461 176.598 308.268 176.65C308.074 176.702 307.896 176.798 307.746 176.931C307.596 177.064 307.478 177.229 307.403 177.415C307.327 177.6 307.295 177.8 307.31 178V178Z" fill="black"></path>
<path opacity="0.1" d="M307.17 183.52C307.154 183.97 307.29 184.413 307.557 184.776C307.824 185.139 308.206 185.401 308.64 185.52C308.837 185.559 309.04 185.552 309.234 185.499C309.427 185.447 309.606 185.351 309.757 185.219C309.908 185.087 310.026 184.921 310.103 184.736C310.18 184.551 310.213 184.35 310.2 184.15C310.215 183.698 310.078 183.255 309.809 182.892C309.54 182.529 309.156 182.267 308.72 182.15C308.523 182.109 308.32 182.114 308.126 182.166C307.931 182.217 307.752 182.313 307.601 182.446C307.451 182.579 307.333 182.745 307.258 182.932C307.184 183.118 307.153 183.32 307.17 183.52Z" fill="black"></path>
<path d="M325.51 104.629C326.61 104.877 331.608 105.051 334.16 108.877C336.586 112.493 335.604 122.437 335.82 124.697C336.036 126.957 339.629 127.71 339.973 130.294C340.268 132.554 338.068 133.066 337.528 134.611C337.116 135.809 338.323 137.835 336.497 139.462C334.838 140.969 332.57 140.306 331.087 140.645C329.605 140.984 328.142 143.364 325.451 143.718C322.761 144.072 320.807 141.971 319.423 141.813C318.038 141.654 315.741 144.69 311.313 143.854C306.885 143.018 306.197 139.944 304.44 139.138C302.682 138.332 297.852 138.754 296.094 136.713C294.337 134.671 294.474 132.26 293.708 131.266C292.942 130.272 290.9 130.166 290.134 128.004C289.368 125.842 292.098 124.855 292.805 123.145C293.296 121.948 292.118 120.652 293.502 118.912C295.407 116.516 299.393 117.571 301.494 115.145C303.154 113.232 307.562 104.599 315.103 103.22C320.326 102.286 325.51 104.629 325.51 104.629Z" fill="#B12C39"></path>
<path d="M299 99.71C297.551 101.589 296.216 103.552 295 105.59C294.34 106.59 293.71 107.59 293 108.49C292.655 108.937 292.266 109.349 291.84 109.72C291.749 109.807 291.644 109.878 291.53 109.93C291.422 110.001 291.304 110.055 291.18 110.09C290.91 110.18 290.63 110.25 290.35 110.32C289.18 110.591 288.025 110.925 286.89 111.32C285.692 111.715 284.644 112.469 283.89 113.48C283.524 114.008 283.297 114.621 283.23 115.26C283.202 115.881 283.29 116.501 283.49 117.09C283.941 118.185 284.136 119.368 284.06 120.55C284.281 119.367 284.209 118.148 283.85 117C283.7 116.45 283.653 115.877 283.71 115.31C283.801 114.766 284.028 114.253 284.37 113.82C285.09 112.968 286.036 112.337 287.1 112C288.19 111.61 289.34 111.4 290.51 111.11C290.8 111.03 291.1 110.94 291.39 110.84C291.711 110.729 292.007 110.556 292.26 110.33C292.726 109.921 293.145 109.461 293.51 108.96C294.235 108 294.903 106.999 295.51 105.96L297.25 102.85C297.775 101.772 298.359 100.723 299 99.71V99.71Z" fill="#263238"></path>
<path d="M284 130.34C284.289 131.13 284.415 131.97 284.37 132.81C284.42 133.66 284.46 134.51 284.55 135.37C284.625 136.238 284.789 137.096 285.04 137.93C285.289 138.808 285.749 139.611 286.38 140.27C287.804 141.365 289.592 141.876 291.38 141.7C292.24 141.7 293.08 141.62 293.92 141.61C294.761 141.549 295.604 141.69 296.38 142.02C295.65 141.548 294.808 141.279 293.94 141.24C293.08 141.17 292.23 141.17 291.39 141.12C289.74 141.03 288 140.78 286.86 139.72C286.315 139.155 285.911 138.47 285.68 137.72C285.417 136.934 285.216 136.128 285.08 135.31C284.93 134.48 284.82 133.64 284.7 132.8C284.63 132.37 284.56 131.95 284.46 131.53C284.412 131.1 284.254 130.69 284 130.34V130.34Z" fill="#263238"></path>
<path d="M298.06 144.6C298.14 145.88 302.64 154.88 308.31 155.6C310.15 155.83 311.84 145.8 311.84 145.8L312.13 145.09L316.24 135.09L305.41 125.18L303.83 123.84C303.83 123.84 302.88 126.64 301.74 130.14L301.58 130.64C301.51 130.83 301.44 131.02 301.39 131.2C301.21 131.72 301.03 132.26 300.87 132.79C300.71 133.32 300.61 133.59 300.49 134.02L300.11 135.3C299.217 138.35 298.532 141.457 298.06 144.6V144.6Z" fill="#F7A9A0"></path>
<path d="M332.31 120.86C331.14 139.74 319.7 141.17 315.63 140.86C311.94 140.63 299.38 139.37 298.63 120.47C297.88 101.57 307 96.2 315.43 96.28C323.86 96.36 333.48 102 332.31 120.86Z" fill="#F7A9A0"></path>
<path d="M296.5 103.5C297.3 101.1 292.667 100 294.5 99.5C292.333 97.5 297.4 92.6 301 91C305.5 89 312.5 91 317.5 91C322.5 91 326.5 94 332.5 97.5C338.5 101 339 105 339 106.5C339 108 337.5 109.5 337 110.5C336.5 111.5 333 114.5 330.5 113.5C328.5 112.7 327 111.167 326.5 110.5C325.667 110.5 323.4 110.9 321 112.5C318 114.5 315 112.5 312.5 113.5C310 114.5 311 117 309.5 119C308 121 306 120 305.5 122.5C305 125 304.5 125.5 303 126C301.5 126.5 304.5 128.5 304.5 131C304.5 133 302.167 134.833 301 135.5C301.667 135 302.8 133.6 302 132C301 130 298.5 130 298 124.5C297.5 119 299.5 118.5 299.5 117C299.5 115.5 293 117.5 292 113.5C291 109.5 295.5 106.5 296.5 103.5Z" fill="#B12C39"></path>
<path d="M331.124 116.142C329.887 114.807 330.608 111.691 331.124 110.3C331.983 107.378 334.423 101.87 337.309 103.205C340.917 104.874 341.433 110.3 342.464 111.134C343.495 111.969 342.979 115.307 341.433 116.142C340.196 116.81 342.979 116.142 342.979 120.945C342.979 125.118 339.577 126.992 338.34 126.992C337.103 126.992 335.247 129.496 337.309 132C336.794 131.722 335.66 130.832 335.247 129.496C335.072 128.929 335.263 128.342 335.606 127.811C334.973 128.404 334.287 129.022 333.701 129.496C332.464 130.498 328.031 130.404 327 130.543C328.203 129.708 331.33 128.328 330.093 126.992C328.546 125.323 330.2 122.164 332.67 121.567C335.247 120.945 332.67 117.811 331.124 116.142Z" fill="#B12C39"></path>
<path d="M302.876 123.142C304.113 121.807 303.392 118.691 302.876 117.3C302.017 114.378 299.577 108.87 296.691 110.205C293.083 111.874 292.567 117.3 291.536 118.134C290.505 118.969 291.021 122.307 292.567 123.142C293.804 123.81 291.021 123.142 291.021 127.945C291.021 132.118 294.423 133.992 295.66 133.992C296.897 133.992 298.753 136.496 296.691 139C297.206 138.722 298.34 137.832 298.753 136.496C298.928 135.929 298.737 135.342 298.394 134.811C299.027 135.404 299.713 136.022 300.299 136.496C301.536 137.498 305.969 137.404 307 137.543C305.797 136.708 302.67 135.328 303.907 133.992C305.454 132.323 303.8 129.164 301.33 128.567C298.753 127.945 301.33 124.811 302.876 123.142Z" fill="#B12C39"></path>
<path d="M300.777 122.047C300.777 122.047 298.313 117.307 296.11 118.087C293.907 118.867 295.297 125.447 297.546 126.625C297.825 126.797 298.137 126.913 298.464 126.966C298.79 127.02 299.125 127.009 299.448 126.936C299.77 126.862 300.074 126.727 300.341 126.538C300.607 126.35 300.832 126.111 301 125.838L300.777 122.047Z" fill="#F7A9A0"></path>
<path d="M296 120V120.06C297.946 120.971 298.822 122.619 299.299 124.289C299.207 124.111 299.066 123.951 298.887 123.818C298.707 123.686 298.492 123.585 298.258 123.523C298.023 123.461 297.773 123.439 297.527 123.458C297.28 123.477 297.041 123.538 296.827 123.635C296.815 123.639 296.804 123.645 296.796 123.654C296.788 123.663 296.784 123.673 296.784 123.684C296.784 123.694 296.788 123.704 296.796 123.713C296.804 123.722 296.815 123.729 296.827 123.733C297.212 123.694 297.602 123.745 297.949 123.879C298.296 124.013 298.583 124.224 298.774 124.485C299.084 124.935 299.332 125.409 299.513 125.9C299.591 126.058 299.941 126.02 299.903 125.847V125.787C300.409 123.718 298.92 120.519 296 120Z" fill="#263238"></path>
<path d="M301 117.746C299.8 116.146 300.5 112.413 301 110.746C301.833 107.246 304.2 100.646 307 102.246C310.5 104.246 311 110.746 312 111.746C313 112.746 312.5 116.746 311 117.746C309.8 118.546 312.5 117.746 312.5 123.5C312.5 128.5 309.2 130.746 308 130.746C306.8 130.746 305 133.746 307 136.746C306.5 136.413 305.4 135.346 305 133.746C304.83 133.066 305.015 132.363 305.348 131.727C304.734 132.437 304.068 133.178 303.5 133.746C302.3 134.946 298 134.833 297 135C298.167 134 301.2 132.346 300 130.746C298.5 128.746 300.104 124.961 302.5 124.246C305 123.5 302.5 119.746 301 117.746Z" fill="#B12C39"></path>
<path d="M299.58 127.84C299.543 128.085 299.411 128.305 299.212 128.453C299.014 128.601 298.765 128.664 298.52 128.63C298.286 128.595 298.074 128.472 297.927 128.287C297.78 128.101 297.71 127.866 297.73 127.63C297.764 127.385 297.895 127.163 298.093 127.014C298.291 126.865 298.54 126.801 298.785 126.835C299.03 126.869 299.252 127 299.401 127.198C299.55 127.396 299.614 127.645 299.58 127.89V127.84Z" fill="white"></path>
<path d="M329.09 116.55C328.675 116.439 328.268 116.302 327.87 116.14C327.42 116.062 327.008 115.837 326.7 115.5C326.624 115.374 326.591 115.226 326.608 115.08C326.624 114.933 326.688 114.796 326.79 114.69C327.023 114.514 327.298 114.402 327.588 114.367C327.878 114.332 328.172 114.374 328.44 114.49C329.02 114.633 329.523 114.99 329.85 115.49C329.922 115.609 329.957 115.746 329.951 115.885C329.946 116.023 329.9 116.157 329.819 116.27C329.738 116.383 329.626 116.47 329.496 116.519C329.367 116.569 329.226 116.58 329.09 116.55V116.55Z" fill="#263238"></path>
<path d="M316.82 116.2C317.25 116.11 317.63 115.95 318.05 115.82C318.5 115.748 318.915 115.53 319.23 115.2C319.309 115.075 319.344 114.928 319.33 114.781C319.315 114.634 319.252 114.497 319.15 114.39C318.922 114.21 318.65 114.093 318.362 114.051C318.074 114.009 317.78 114.043 317.51 114.15C316.921 114.29 316.407 114.647 316.07 115.15C316.003 115.268 315.97 115.403 315.977 115.538C315.984 115.674 316.029 115.805 316.108 115.915C316.187 116.026 316.296 116.112 316.423 116.162C316.549 116.212 316.687 116.226 316.82 116.2V116.2Z" fill="#263238"></path>
<path d="M319 120.22C319 120.22 318.89 120.22 318.89 120.32C318.82 121.59 318.53 123.02 317.35 123.32V123.4C318.78 123.34 319.15 121.43 319 120.22Z" fill="#263238"></path>
<path d="M318 118.8C316 118.47 315.46 122.53 317.33 122.8C319.2 123.07 319.7 119.08 318 118.8Z" fill="#263238"></path>
<path d="M317.18 118.91C316.8 119.1 316.4 119.46 315.97 119.45C315.54 119.44 315.15 118.96 314.88 118.51C314.88 118.46 314.81 118.51 314.8 118.51C314.69 118.874 314.723 119.265 314.892 119.606C315.061 119.946 315.354 120.208 315.71 120.34C316.45 120.54 317.09 119.93 317.38 119.17C317.44 119.07 317.34 118.84 317.18 118.91Z" fill="#263238"></path>
<path d="M326.22 120.63C326.22 120.63 326.31 120.7 326.3 120.75C326.09 122 326.06 123.47 327.14 124.04C327.14 124.04 327.14 124.12 327.14 124.11C325.76 123.73 325.82 121.78 326.22 120.63Z" fill="#263238"></path>
<path d="M327.51 119.47C329.56 119.59 329.17 123.66 327.28 123.55C325.39 123.44 325.8 119.37 327.51 119.47Z" fill="#263238"></path>
<path d="M328.34 119.81C328.64 120.06 328.92 120.48 329.34 120.55C329.76 120.62 330.16 120.21 330.48 119.81H330.54C330.49 120.59 330.15 121.38 329.39 121.46C328.63 121.54 328.26 120.81 328.15 120.02C328.09 119.92 328.22 119.72 328.34 119.81Z" fill="#263238"></path>
<path d="M317.88 130.49C318.13 130.84 318.36 131.29 318.81 131.41C319.274 131.479 319.747 131.451 320.2 131.33C320.25 131.33 320.28 131.33 320.25 131.4C320.027 131.613 319.75 131.763 319.45 131.833C319.149 131.903 318.835 131.892 318.54 131.8C318.298 131.69 318.094 131.51 317.953 131.284C317.812 131.058 317.742 130.796 317.75 130.53C317.749 130.514 317.753 130.499 317.762 130.486C317.771 130.473 317.784 130.464 317.799 130.459C317.814 130.454 317.83 130.455 317.845 130.461C317.86 130.466 317.872 130.477 317.88 130.49V130.49Z" fill="#263238"></path>
<path d="M323.83 126.3C323.83 126.3 323.88 128.21 323.78 129.1C323.78 129.18 323.55 129.2 323.24 129.18C322.462 129.23 321.684 129.065 320.993 128.704C320.302 128.342 319.723 127.798 319.32 127.13C319.27 127.04 319.4 126.96 319.47 127.02C320.508 127.928 321.814 128.472 323.19 128.57C323.28 128.33 323.01 125.3 323.19 125.31C323.887 125.442 324.56 125.675 325.19 126C325.19 122 324.61 118.06 324.69 114.09C324.69 114.058 324.703 114.028 324.725 114.005C324.748 113.983 324.778 113.97 324.81 113.97C324.842 113.97 324.872 113.983 324.895 114.005C324.917 114.028 324.93 114.058 324.93 114.09C325.72 118.31 326.085 122.598 326.02 126.89C325.92 127.37 324.17 126.5 323.83 126.3Z" fill="#263238"></path>
<path d="M322.88 129C322.295 129.613 321.561 130.064 320.75 130.31C320.301 130.425 319.828 130.404 319.39 130.25C318.45 129.89 318.52 128.99 318.78 128.25C318.926 127.858 319.114 127.482 319.34 127.13C320.292 128.113 321.532 128.768 322.88 129V129Z" fill="#263238"></path>
<path d="M320.75 130.31C320.301 130.425 319.828 130.404 319.39 130.25C318.45 129.89 318.52 128.99 318.78 128.25C319.291 128.324 319.763 128.566 320.121 128.94C320.478 129.313 320.699 129.796 320.75 130.31Z" fill="#FF98B9"></path>
<path d="M290 143.53C290.022 145.223 290.502 146.878 291.39 148.32C294.22 152.99 301.82 156.78 309.39 155.86C314.2 155.27 317.17 153.33 318.67 150.86C313.645 151.786 308.48 151.61 303.53 150.344C298.58 149.079 293.964 146.754 290 143.53V143.53Z" fill="#455A64"></path>
<path d="M283.49 137.28C292.07 151.93 317.03 158.41 332.75 145.19C343.85 135.83 348.75 116.54 340.39 100.49C328.25 77.28 303.71 79.67 290 91C275.59 102.94 277 126.16 283.49 137.28ZM300.23 100.19C311.3 92.04 331.17 91.55 340.83 108.06C343.817 113.254 344.815 119.356 343.64 125.231C342.464 131.106 339.195 136.355 334.44 140C321.7 149.55 301.63 145.06 294.78 134.63C289.59 126.72 288.52 108.81 300.23 100.19Z" fill="#FFC727"></path>
<path opacity="0.1" d="M294.78 134.62C301.63 145.05 321.7 149.54 334.44 139.99C339.192 136.345 342.46 131.099 343.635 125.226C344.811 119.353 343.814 113.253 340.83 108.06C331.17 91.55 311.3 92.06 300.23 100.19C288.52 108.81 289.59 126.72 294.78 134.62Z" fill="#455A64"></path>
<path opacity="0.1" d="M294.78 134.62C301.63 145.05 321.7 149.54 334.44 139.99C339.192 136.345 342.46 131.099 343.635 125.226C344.811 119.353 343.814 113.253 340.83 108.06C331.17 91.55 311.3 92.06 300.23 100.19C288.52 108.81 289.59 126.72 294.78 134.62Z" fill="#455A64"></path>
<g opacity="0.2">
<path opacity="0.2" d="M318.59 94.69C327.992 104.245 336.318 114.801 343.42 126.17C344.265 122.806 344.371 119.299 343.73 115.89C339.125 109.276 334.098 102.966 328.68 97C325.496 95.5893 322.07 94.8051 318.59 94.69Z" fill="white"></path>
<path opacity="0.2" d="M291.4 125C291.834 128.416 292.986 131.701 294.78 134.64C297.058 137.895 300.165 140.481 303.78 142.13C300.069 136.131 295.931 130.406 291.4 125V125Z" fill="white"></path>
<path opacity="0.2" d="M313.07 95C324.092 105.831 333.662 118.046 341.54 131.34C341.73 130.97 341.9 130.6 342.06 130.22C334.313 117.316 324.984 105.43 314.29 94.84L313.07 95Z" fill="white"></path>
<path opacity="0.2" d="M291.93 113.05C301.239 122.693 309.271 133.491 315.83 145.18C316.21 145.18 316.59 145.18 316.98 145.18C310.214 133.079 301.883 121.923 292.2 112C292.1 112.36 292 112.7 291.93 113.05Z" fill="white"></path>
<path opacity="0.2" d="M291.06 120.09C291.06 120.57 291.06 121.03 291.06 121.5C297.035 128.327 302.39 135.672 307.06 143.45C307.51 143.61 307.96 143.76 308.42 143.89C303.417 135.414 297.603 127.443 291.06 120.09V120.09Z" fill="white"></path>
<path opacity="0.2" d="M295.7 104.75C307.644 116.306 317.759 129.611 325.7 144.21C326.856 143.9 327.989 143.509 329.09 143.04C320.855 127.905 310.324 114.138 297.87 102.23C297.085 103.015 296.36 103.857 295.7 104.75V104.75Z" fill="white"></path>
</g>
<path d="M274.59 124.59C272.95 120.59 272.92 112.31 277.1 108.37C281.1 104.65 287.89 104.28 290.91 112.72C292.99 118.55 291.34 125.26 288.12 128.35C283.56 132.72 276.75 129.94 274.59 124.59Z" fill="#FFC727"></path>
<path opacity="0.1" d="M274.59 124.59C272.95 120.59 272.92 112.31 277.1 108.37C281.1 104.65 287.89 104.28 290.91 112.72C292.99 118.55 291.34 125.26 288.12 128.35C283.56 132.72 276.75 129.94 274.59 124.59Z" fill="black"></path>
<path d="M273.33 123.12C272.07 120 272.05 113.68 275.26 110.65C278.26 107.79 283.55 107.51 285.87 113.99C287.47 118.47 286.2 123.63 283.72 125.99C280.23 129.36 275 127.22 273.33 123.12Z" fill="#FFC727"></path>
<path d="M281.36 157.88C285.54 182.74 305.36 214.88 311.96 222.12C322.01 233.19 368.14 221.32 377.54 219.52C381.54 218.76 369.19 183.77 364.89 184.52C361.14 185.16 325.89 195.52 324.84 194.28C323.99 193.28 306.95 170.28 294.73 155.13C284.19 142.06 280.26 151.3 281.36 157.88Z" fill="#F7A9A0"></path>
<path d="M356.59 186.63L363.04 184.92C365.112 184.313 367.084 183.403 368.89 182.22C376.12 178.05 396.4 172.53 414.71 187.22C421.71 192.83 420.85 200.22 412.53 195.67C406.66 192.47 402.87 189.75 400.67 189.24C400.67 189.24 404.67 198.66 401.53 203.7C398.801 208.106 395.763 212.313 392.44 216.29C391.574 215.844 390.736 215.347 389.93 214.8C388.523 216.679 386.613 218.123 384.421 218.963C382.228 219.804 379.843 220.007 377.54 219.55L367.15 221.77L356.59 186.63Z" fill="#455A64"></path>
<path d="M376.42 179.35C380.71 180.19 389.78 182.14 396.64 186.35C404.26 190.98 417.7 201.97 414.22 207.56C411.67 211.66 406.17 207.91 406.17 207.91C406.17 207.91 410.76 213.62 407.65 216.82C404.81 219.74 400.73 216.59 400.73 216.59C400.73 216.59 402.92 220.53 399.65 222.81C395.71 225.56 391.76 216.81 385.37 216.17C383.93 216 376.42 179.35 376.42 179.35Z" fill="#455A64"></path>
<path d="M390.4 193.55C394.31 195.01 402.33 200.55 406.18 207.7C406.26 207.86 406.18 208.01 406.08 207.88C401.434 202.51 396.156 197.722 390.36 193.62C390.36 193.62 390.36 193.54 390.4 193.55Z" fill="#263238"></path>
<path d="M386 201.38C389.24 202.99 397.25 209.12 400.9 216.44C400.98 216.61 400.9 216.76 400.79 216.62C396.434 211.017 391.456 205.928 385.95 201.45C385.95 201.45 385.9 201.36 386 201.38Z" fill="#263238"></path>
<path d="M356.59 186.63L367.15 221.74C367.15 221.74 365.04 225.74 355.59 227.56C346.14 229.38 318.59 229.87 312.24 224.05C305.89 218.23 288.32 188.05 282.19 165.72C276.06 143.39 288.92 145.48 295.66 155.15C302.4 164.82 324.87 192.87 325.54 193.15C326.21 193.43 341.97 187.41 347.68 186.25C353.39 185.09 356.59 186.63 356.59 186.63Z" fill="#FFC727"></path>
<path d="M321.63 188.56C320.05 186.95 318.57 185.27 317.1 183.56C315.63 181.85 314.21 180.13 312.8 178.39C311.39 176.65 310.02 174.88 308.69 173.06L306.69 170.34C306.05 169.41 305.39 168.5 304.79 167.55C305.58 168.35 306.32 169.19 307.09 170.01L309.31 172.54C310.79 174.23 312.2 175.97 313.61 177.71C315.02 179.45 316.4 181.23 317.72 183.05C319.04 184.87 320.4 186.68 321.63 188.56Z" fill="#263238"></path>
<path d="M309 172.73C308.568 172.057 308.203 171.344 307.91 170.6C307.615 169.857 307.358 169.099 307.14 168.33C307.43 168.629 307.679 168.965 307.88 169.33C308.081 169.678 308.258 170.039 308.41 170.41C308.72 171.15 308.919 171.932 309 172.73V172.73Z" fill="#263238"></path>
<path d="M309.47 220.9C308.11 219.28 306.86 217.56 305.6 215.85C304.34 214.14 303.19 212.35 302.03 210.57C299.72 207.01 297.6 203.33 295.57 199.57C293.54 195.81 291.71 192 290.05 188.08C288.37 184.181 286.898 180.195 285.64 176.14C286.52 178.08 287.26 180.06 288.17 181.97C289.08 183.88 289.88 185.85 290.81 187.74L293.57 193.45C294.57 195.33 295.48 197.22 296.51 199.06C298.45 202.82 300.58 206.47 302.73 210.06C304.88 213.65 307.13 217.37 309.47 220.9Z" fill="#263238"></path>
<path d="M288.35 183.18C287.679 182.671 287.069 182.087 286.53 181.44C285.982 180.801 285.512 180.1 285.13 179.35C285.8 179.857 286.407 180.441 286.94 181.09C287.496 181.725 287.969 182.427 288.35 183.18V183.18Z" fill="#263238"></path>
<path opacity="0.1" d="M351.45 190.5C352.87 194.33 354.09 198.25 355.28 202.17C356.47 206.09 357.64 209.93 358.79 213.81C359.45 216.04 360.11 218.27 360.69 220.51C360.69 220.66 360.6 220.69 360.55 220.51C359.16 216.66 357.96 212.73 356.71 208.84C355.46 204.95 354.27 201.1 353.1 197.22C352.43 194.99 351.8 192.77 351.24 190.51C351.18 190.34 351.37 190.29 351.45 190.5Z" fill="black"></path>
<path d="M381.88 337.25L387.39 338.27L388.62 344.08L389.85 338.27L395.36 337.25L389.87 335.91L388.62 330.43L387.36 335.91L381.88 337.25Z" fill="#C7C7C7"></path>
<path d="M114.28 321.65L119.78 322.67L121.02 328.47L122.25 322.67L127.75 321.64L122.27 320.3L121.02 314.82L119.76 320.3L114.28 321.65Z" fill="#C7C7C7"></path>
<path d="M325.61 243.82L331.12 244.84L332.35 250.65L333.58 244.84L339.09 243.82L333.61 242.48L332.35 237L331.1 242.48L325.61 243.82Z" fill="#C7C7C7"></path>
<path d="M434.24 303.07L437.32 303.64L438.01 306.88L438.7 303.64L441.77 303.07L438.71 302.32L438.01 299.25L437.31 302.32L434.24 303.07Z" fill="#C7C7C7"></path>
<path d="M200.6 426.57L203.68 427.14L204.36 430.38L205.05 427.14L208.13 426.57L205.06 425.82L204.36 422.75L203.66 425.82L200.6 426.57Z" fill="#C7C7C7"></path>
<path d="M426.71 156.97L429.79 157.54L430.48 160.79L431.16 157.54L434.24 156.97L431.18 156.22L430.48 153.16L429.77 156.22L426.71 156.97Z" fill="#C7C7C7"></path>
<path d="M63.52 226.78L66.6 227.35L67.29 230.6L67.98 227.35L71.06 226.78L67.99 226.03L67.29 222.97L66.59 226.03L63.52 226.78Z" fill="#C7C7C7"></path>
<path d="M80.04 391.98L83.12 392.55L83.81 395.79L84.5 392.55L87.57 391.98L84.51 391.23L83.81 388.16L83.11 391.23L80.04 391.98Z" fill="#C7C7C7"></path>
<path d="M414.83 239.19L417.91 239.75L418.6 243L419.28 239.75L422.36 239.18L419.3 238.44L418.6 235.37L417.89 238.44L414.83 239.19Z" fill="#C7C7C7"></path>
<path d="M172.92 83.46L176 84.03L176.69 87.27L177.38 84.03L180.46 83.45L177.39 82.7L176.69 79.64L175.99 82.7L172.92 83.46Z" fill="#C7C7C7"></path>
<path d="M293.45 332.29L296.53 332.86L297.22 336.1L297.91 332.86L300.99 332.29L297.92 331.54L297.22 328.47L296.52 331.54L293.45 332.29Z" fill="#C7C7C7"></path>
<path d="M193.31 433.59C193.546 433.59 193.772 433.684 193.939 433.851C194.106 434.018 194.2 434.244 194.2 434.48C194.2 434.716 194.106 434.942 193.939 435.109C193.772 435.276 193.546 435.37 193.31 435.37C193.074 435.37 192.848 435.276 192.681 435.109C192.514 434.942 192.42 434.716 192.42 434.48C192.42 434.244 192.514 434.018 192.681 433.851C192.848 433.684 193.074 433.59 193.31 433.59V433.59Z" fill="#C7C7C7"></path>
<path d="M352.52 266.2C352.741 266.223 352.946 266.328 353.094 266.493C353.243 266.658 353.325 266.873 353.325 267.095C353.325 267.317 353.243 267.532 353.094 267.697C352.946 267.862 352.741 267.967 352.52 267.99C352.299 267.967 352.094 267.862 351.946 267.697C351.797 267.532 351.715 267.317 351.715 267.095C351.715 266.873 351.797 266.658 351.946 266.493C352.094 266.328 352.299 266.223 352.52 266.2V266.2Z" fill="#C7C7C7"></path>
<path d="M144 426.89C144.221 426.913 144.426 427.018 144.574 427.183C144.723 427.348 144.805 427.563 144.805 427.785C144.805 428.007 144.723 428.222 144.574 428.387C144.426 428.552 144.221 428.657 144 428.68C143.779 428.657 143.574 428.552 143.426 428.387C143.277 428.222 143.195 428.007 143.195 427.785C143.195 427.563 143.277 427.348 143.426 427.183C143.574 427.018 143.779 426.913 144 426.89V426.89Z" fill="#C7C7C7"></path>
<path d="M395 277.89C395.221 277.913 395.426 278.018 395.574 278.183C395.723 278.348 395.805 278.563 395.805 278.785C395.805 279.007 395.723 279.222 395.574 279.387C395.426 279.552 395.221 279.657 395 279.68C394.779 279.657 394.574 279.552 394.426 279.387C394.277 279.222 394.195 279.007 394.195 278.785C394.195 278.563 394.277 278.348 394.426 278.183C394.574 278.018 394.779 277.913 395 277.89V277.89Z" fill="#C7C7C7"></path>
<path d="M215.67 417.54C215.837 417.54 215.997 417.606 216.115 417.725C216.234 417.843 216.3 418.003 216.3 418.17C216.3 418.337 216.234 418.497 216.115 418.615C215.997 418.734 215.837 418.8 215.67 418.8C215.503 418.8 215.343 418.734 215.225 418.615C215.106 418.497 215.04 418.337 215.04 418.17C215.04 418.003 215.106 417.843 215.225 417.725C215.343 417.606 215.503 417.54 215.67 417.54V417.54Z" fill="#C7C7C7"></path>
<path d="M89.59 89.71C89.7571 89.71 89.9173 89.7764 90.0355 89.8945C90.1536 90.0127 90.22 90.1729 90.22 90.34C90.22 90.5071 90.1536 90.6673 90.0355 90.7855C89.9173 90.9036 89.7571 90.97 89.59 90.97C89.4229 90.97 89.2627 90.9036 89.1445 90.7855C89.0264 90.6673 88.96 90.5071 88.96 90.34C88.96 90.1729 89.0264 90.0127 89.1445 89.8945C89.2627 89.7764 89.4229 89.71 89.59 89.71Z" fill="#C7C7C7"></path>
<path d="M333.09 292.64C333.257 292.64 333.417 292.706 333.535 292.825C333.654 292.943 333.72 293.103 333.72 293.27C333.72 293.437 333.654 293.597 333.535 293.715C333.417 293.834 333.257 293.9 333.09 293.9C332.923 293.9 332.763 293.834 332.645 293.715C332.526 293.597 332.46 293.437 332.46 293.27C332.46 293.103 332.526 292.943 332.645 292.825C332.763 292.706 332.923 292.64 333.09 292.64V292.64Z" fill="#C7C7C7"></path>
<path d="M311.69 281.16C312.122 281.193 312.526 281.388 312.821 281.706C313.115 282.024 313.279 282.442 313.279 282.875C313.279 283.308 313.115 283.726 312.821 284.044C312.526 284.362 312.122 284.557 311.69 284.59C311.258 284.557 310.854 284.362 310.559 284.044C310.265 283.726 310.101 283.308 310.101 282.875C310.101 282.442 310.265 282.024 310.559 281.706C310.854 281.388 311.258 281.193 311.69 281.16Z" fill="#C7C7C7"></path>
<path d="M186.4 147.26L191.91 148.28L193.14 154.08L194.37 148.28L199.88 147.25L194.39 145.91L193.14 140.43L191.88 145.91L186.4 147.26Z" fill="#C7C7C7"></path>
<path d="M245.11 58.08L248.19 58.65L248.88 61.9L249.57 58.65L252.65 58.08L249.58 57.33L248.88 54.27L248.18 57.33L245.11 58.08Z" fill="#C7C7C7"></path>
<path d="M58.47 141.39C58.6911 141.413 58.8956 141.518 59.0443 141.683C59.193 141.848 59.2753 142.063 59.2753 142.285C59.2753 142.507 59.193 142.722 59.0443 142.887C58.8956 143.052 58.6911 143.157 58.47 143.18C58.2489 143.157 58.0444 143.052 57.8957 142.887C57.747 142.722 57.6647 142.507 57.6647 142.285C57.6647 142.063 57.747 141.848 57.8957 141.683C58.0444 141.518 58.2489 141.413 58.47 141.39V141.39Z" fill="#C7C7C7"></path>
<path d="M72.49 378.09C72.726 378.09 72.9524 378.184 73.1193 378.351C73.2862 378.518 73.38 378.744 73.38 378.98C73.38 379.216 73.2862 379.442 73.1193 379.609C72.9524 379.776 72.726 379.87 72.49 379.87C72.2539 379.87 72.0276 379.776 71.8607 379.609C71.6938 379.442 71.6 379.216 71.6 378.98C71.6 378.744 71.6938 378.518 71.8607 378.351C72.0276 378.184 72.2539 378.09 72.49 378.09V378.09Z" fill="#C7C7C7"></path>
<path d="M94 216.21C94.2374 216.21 94.465 216.304 94.6329 216.472C94.8007 216.64 94.895 216.868 94.895 217.105C94.895 217.342 94.8007 217.57 94.6329 217.738C94.465 217.906 94.2374 218 94 218C93.7626 218 93.535 217.906 93.3671 217.738C93.1993 217.57 93.105 217.342 93.105 217.105C93.105 216.868 93.1993 216.64 93.3671 216.472C93.535 216.304 93.7626 216.21 94 216.21Z" fill="#C7C7C7"></path>
<path d="M129.34 335.54C129.507 335.54 129.667 335.606 129.785 335.725C129.904 335.843 129.97 336.003 129.97 336.17C129.97 336.337 129.904 336.497 129.785 336.615C129.667 336.734 129.507 336.8 129.34 336.8C129.173 336.8 129.013 336.734 128.895 336.615C128.776 336.497 128.71 336.337 128.71 336.17C128.71 336.003 128.776 335.843 128.895 335.725C129.013 335.606 129.173 335.54 129.34 335.54V335.54Z" fill="#C7C7C7"></path>
<path d="M262.52 416.47C262.687 416.47 262.847 416.536 262.965 416.655C263.084 416.773 263.15 416.933 263.15 417.1C263.15 417.267 263.084 417.427 262.965 417.545C262.847 417.664 262.687 417.73 262.52 417.73C262.353 417.73 262.193 417.664 262.075 417.545C261.956 417.427 261.89 417.267 261.89 417.1C261.89 416.933 261.956 416.773 262.075 416.655C262.193 416.536 262.353 416.47 262.52 416.47V416.47Z" fill="#C7C7C7"></path>
<path d="M356.29 127.62C356.457 127.62 356.617 127.686 356.735 127.805C356.854 127.923 356.92 128.083 356.92 128.25C356.92 128.417 356.854 128.577 356.735 128.695C356.617 128.814 356.457 128.88 356.29 128.88C356.123 128.88 355.963 128.814 355.845 128.695C355.726 128.577 355.66 128.417 355.66 128.25C355.66 128.083 355.726 127.923 355.845 127.805C355.963 127.686 356.123 127.62 356.29 127.62V127.62Z" fill="#C7C7C7"></path>
<path d="M242.23 89C242.397 89 242.557 89.0664 242.675 89.1845C242.794 89.3027 242.86 89.4629 242.86 89.63C242.86 89.7971 242.794 89.9573 242.675 90.0755C242.557 90.1936 242.397 90.26 242.23 90.26C242.063 90.26 241.903 90.1936 241.785 90.0755C241.666 89.9573 241.6 89.7971 241.6 89.63C241.6 89.4629 241.666 89.3027 241.785 89.1845C241.903 89.0664 242.063 89 242.23 89V89Z" fill="#C7C7C7"></path>
<path d="M204.37 313.11C204.824 313.11 205.258 313.29 205.579 313.611C205.9 313.932 206.08 314.367 206.08 314.82C206.08 315.274 205.9 315.708 205.579 316.029C205.258 316.35 204.824 316.53 204.37 316.53C203.916 316.53 203.482 316.35 203.161 316.029C202.84 315.708 202.66 315.274 202.66 314.82C202.66 314.367 202.84 313.932 203.161 313.611C203.482 313.29 203.916 313.11 204.37 313.11V313.11Z" fill="#C7C7C7"></path>
<path d="M429.72 183.84C430.174 183.84 430.608 184.02 430.929 184.341C431.25 184.662 431.43 185.096 431.43 185.55C431.43 186.004 431.25 186.438 430.929 186.759C430.608 187.08 430.174 187.26 429.72 187.26C429.266 187.26 428.832 187.08 428.511 186.759C428.19 186.438 428.01 186.004 428.01 185.55C428.01 185.096 428.19 184.662 428.511 184.341C428.832 184.02 429.266 183.84 429.72 183.84Z" fill="#C7C7C7"></path>
<path d="M79.6 333.83C80.0535 333.83 80.4885 334.01 80.8092 334.331C81.1298 334.652 81.31 335.087 81.31 335.54C81.31 335.994 81.1298 336.428 80.8092 336.749C80.4885 337.07 80.0535 337.25 79.6 337.25C79.1465 337.25 78.7115 337.07 78.3908 336.749C78.0702 336.428 77.89 335.994 77.89 335.54C77.89 335.087 78.0702 334.652 78.3908 334.331C78.7115 334.01 79.1465 333.83 79.6 333.83V333.83Z" fill="#C7C7C7"></path>
<path d="M184 174.82L187.08 175.39L187.77 178.64L188.45 175.39L191.53 174.82L188.47 174.07L187.77 171.01L187.06 174.07L184 174.82Z" fill="#C7C7C7"></path>
<path d="M288.73 423.25L291.81 423.82L292.5 427.07L293.18 423.82L296.26 423.25L293.2 422.5L292.5 419.44L291.8 422.5L288.73 423.25Z" fill="#C7C7C7"></path>
<path d="M302.37 383.27C302.606 383.27 302.832 383.364 302.999 383.531C303.166 383.698 303.26 383.924 303.26 384.16C303.26 384.396 303.166 384.622 302.999 384.789C302.832 384.956 302.606 385.05 302.37 385.05C302.134 385.05 301.908 384.956 301.741 384.789C301.574 384.622 301.48 384.396 301.48 384.16C301.48 383.924 301.574 383.698 301.741 383.531C301.908 383.364 302.134 383.27 302.37 383.27V383.27Z" fill="#C7C7C7"></path>
<path d="M337.15 359.53C337.386 359.53 337.612 359.624 337.779 359.791C337.946 359.958 338.04 360.184 338.04 360.42C338.04 360.656 337.946 360.882 337.779 361.049C337.612 361.216 337.386 361.31 337.15 361.31C336.914 361.31 336.688 361.216 336.521 361.049C336.354 360.882 336.26 360.656 336.26 360.42C336.26 360.184 336.354 359.958 336.521 359.791C336.688 359.624 336.914 359.53 337.15 359.53Z" fill="#C7C7C7"></path>
<path d="M227.09 400.52L230.17 401.09L230.86 404.33L231.55 401.09L234.63 400.51L231.56 399.77L230.86 396.7L230.16 399.77L227.09 400.52Z" fill="#C7C7C7"></path>
<path d="M353.83 113.07C354.051 113.093 354.256 113.198 354.404 113.363C354.553 113.528 354.635 113.743 354.635 113.965C354.635 114.187 354.553 114.402 354.404 114.567C354.256 114.732 354.051 114.837 353.83 114.86C353.609 114.837 353.404 114.732 353.256 114.567C353.107 114.402 353.025 114.187 353.025 113.965C353.025 113.743 353.107 113.528 353.256 113.363C353.404 113.198 353.609 113.093 353.83 113.07Z" fill="#C7C7C7"></path>
<path d="M375.3 362.34C375.455 362.359 375.597 362.435 375.7 362.552C375.803 362.669 375.86 362.819 375.86 362.975C375.86 363.131 375.803 363.281 375.7 363.398C375.597 363.515 375.455 363.591 375.3 363.61C375.145 363.591 375.003 363.515 374.9 363.398C374.797 363.281 374.74 363.131 374.74 362.975C374.74 362.819 374.797 362.669 374.9 362.552C375.003 362.435 375.145 362.359 375.3 362.34V362.34Z" fill="#C7C7C7"></path>
<path d="M106.65 255L109.73 255.57L110.42 258.82L111.1 255.57L114.18 255L111.12 254.25L110.42 251.19L109.72 254.25L106.65 255Z" fill="#C7C7C7"></path>
<path d="M71.06 304.12C71.296 304.12 71.5224 304.214 71.6893 304.381C71.8562 304.548 71.95 304.774 71.95 305.01C71.95 305.246 71.8562 305.472 71.6893 305.639C71.5224 305.806 71.296 305.9 71.06 305.9C70.824 305.9 70.5976 305.806 70.4307 305.639C70.2638 305.472 70.17 305.246 70.17 305.01C70.17 304.774 70.2638 304.548 70.4307 304.381C70.5976 304.214 70.824 304.12 71.06 304.12V304.12Z" fill="#C7C7C7"></path>
<path d="M194.18 238.39C194.416 238.39 194.642 238.484 194.809 238.651C194.976 238.818 195.07 239.044 195.07 239.28C195.07 239.516 194.976 239.742 194.809 239.909C194.642 240.076 194.416 240.17 194.18 240.17C193.944 240.17 193.718 240.076 193.551 239.909C193.384 239.742 193.29 239.516 193.29 239.28C193.29 239.044 193.384 238.818 193.551 238.651C193.718 238.484 193.944 238.39 194.18 238.39Z" fill="#C7C7C7"></path>
<path d="M89.59 148.22C89.7571 148.22 89.9173 148.286 90.0355 148.405C90.1536 148.523 90.22 148.683 90.22 148.85C90.22 149.017 90.1536 149.177 90.0355 149.295C89.9173 149.414 89.7571 149.48 89.59 149.48C89.4229 149.48 89.2627 149.414 89.1445 149.295C89.0264 149.177 88.96 149.017 88.96 148.85C88.96 148.683 89.0264 148.523 89.1445 148.405C89.2627 148.286 89.4229 148.22 89.59 148.22V148.22Z" fill="#C7C7C7"></path>
<path d="M81.51 142.41C81.9422 142.443 82.346 142.638 82.6407 142.956C82.9353 143.274 83.0989 143.692 83.0989 144.125C83.0989 144.558 82.9353 144.976 82.6407 145.294C82.346 145.612 81.9422 145.807 81.51 145.84C81.0778 145.807 80.674 145.612 80.3793 145.294C80.0847 144.976 79.9211 144.558 79.9211 144.125C79.9211 143.692 80.0847 143.274 80.3793 142.956C80.674 142.638 81.0778 142.443 81.51 142.41Z" fill="#C7C7C7"></path>
<path d="M372.9 222C373.354 222 373.788 222.18 374.109 222.501C374.43 222.822 374.61 223.256 374.61 223.71C374.61 224.164 374.43 224.598 374.109 224.919C373.788 225.24 373.354 225.42 372.9 225.42C372.446 225.42 372.012 225.24 371.691 224.919C371.37 224.598 371.19 224.164 371.19 223.71C371.19 223.256 371.37 222.822 371.691 222.501C372.012 222.18 372.446 222 372.9 222V222Z" fill="#C7C7C7"></path>
</svg>
